<?xml version="1.0" encoding="utf-8"?>
<!-- Generator: Adobe Illustrator 22.0.1, SVG Export Plug-In . SVG Version: 6.00 Build 0)  -->
<svg version="1.1" id="Layer_1" xmlns="http://www.w3.org/2000/svg" xmlns:xlink="http://www.w3.org/1999/xlink" x="0px" y="0px"
	 viewBox="0 0 32.7 30" style="enable-background:new 0 0 32.7 30;" xml:space="preserve">
<style type="text/css">
	.st0{fill:#FFFFFF;}
</style>
<title>Chat_icon</title>
<path class="st0" d="M16.4,2.7c7.5,0,13.6,4.9,13.6,11c0,6.7-7,10.8-13.5,10.8c-2,0-4-0.3-6-0.9c-1.8,1.2-3.7,2-5.8,2.5
	c0.7-1.9,1-3.8,0.8-5.8c-1.8-1.8-2.7-4.2-2.8-6.6C2.7,7.6,8.8,2.7,16.4,2.7z M16.4,0C7.7,0,0,5.8,0,13.7c0,2.8,1,5.5,2.8,7.7
	c0.1,2.5-1.4,6.1-2.7,8.7C3.6,29.5,8.7,28,11,26.6c1.8,0.4,3.7,0.7,5.5,0.7c9.7,0,16.2-6.6,16.2-13.6C32.7,5.7,25,0,16.4,0z
	 M11.6,13.6c0,1.1-0.9,2-2,2s-2-0.9-2-2s0.9-2,2-2S11.6,12.5,11.6,13.6z M16.4,11.6c-1.1,0-2,0.9-2,2s0.9,2,2,2s2-0.9,2-2
	S17.5,11.6,16.4,11.6L16.4,11.6z M23.2,11.6c-1.1,0-2,0.9-2,2s0.9,2,2,2s2-0.9,2-2S24.3,11.6,23.2,11.6L23.2,11.6z"/>
</svg>
