<svg id="Layer_1" data-name="Layer 1" xmlns="http://www.w3.org/2000/svg" viewBox="0 0 90 90"><defs><style>.cls-1{fill:#183560;}</style></defs><title>icon</title><path class="cls-1" d="M45,90A45,45,0,1,1,90,45,45.05,45.05,0,0,1,45,90ZM45,1.8A43.2,43.2,0,1,0,88.2,45,43.25,43.25,0,0,0,45,1.8Z"/><path class="cls-1" d="M64.7,42.83A17.9,17.9,0,0,1,59.18,52L44.88,64.8,30.82,52a18,18,0,0,1-5.52-9.21A10.75,10.75,0,0,1,25,38.89v-.08c.54-6.13,4.8-10.58,10.12-10.58a9.81,9.81,0,0,1,9,6.29l.78,1.83.77-1.83a10.11,10.11,0,0,1,9.27-6.29c5.32,0,9.58,4.45,10.13,10.66a10.75,10.75,0,0,1-.35,3.94m2-4.2c-.64-7-5.59-12.08-11.79-12.08a11.71,11.71,0,0,0-10,5.79,11.3,11.3,0,0,0-9.8-5.79c-6.2,0-11.15,5.08-11.79,12.08a12.58,12.58,0,0,0,.37,4.58,19.76,19.76,0,0,0,6,10.07L44.87,67.05,60.31,53.28a19.76,19.76,0,0,0,6-10.07,12.57,12.57,0,0,0,.37-4.58"/><path class="cls-1" d="M36.62,31.64A8.38,8.38,0,0,0,28.25,40a.84.84,0,1,0,1.67,0,6.71,6.71,0,0,1,6.7-6.7.84.84,0,0,0,0-1.68"/></svg>