<?xml version="1.0" encoding="utf-8"?>
<!-- Generator: Adobe Illustrator 23.0.3, SVG Export Plug-In . SVG Version: 6.00 Build 0)  -->
<svg version="1.1" id="Layer_1" xmlns="http://www.w3.org/2000/svg" xmlns:xlink="http://www.w3.org/1999/xlink" x="0px" y="0px"
	 viewBox="0 0 65.4 65.3" style="enable-background:new 0 0 65.4 65.3;" xml:space="preserve">
<style type="text/css">
	.st0{fill:#FFFFFF;}
	.st1{fill:#1A3660;}
	.st2{fill:#74808A;}
</style>
<title>Untitled-1</title>
<g>
	<g>
		<path class="st0" d="M32.6,0C14.6,0,0,14.7,0,32.7s14.6,32.6,32.7,32.6c18,0,32.7-14.6,32.7-32.6C65.3,14.7,50.6,0,32.6,0z"/>
		<path class="st1" d="M32.6,2.3C49.4,2.3,63,15.9,63,32.7S49.4,63.1,32.6,63.1C15.9,63,2.3,49.4,2.3,32.7
			C2.3,15.9,15.9,2.3,32.6,2.3z M12.7,32.7c0,11,8.9,19.9,19.9,19.9s19.9-8.9,19.9-19.9s-8.9-19.9-19.9-19.9S12.7,21.7,12.7,32.7z
			 M10.2,35.4L7.3,36c-0.6,0.1-1.3,0.4-1.6,0.9s-0.3,1-0.2,1.8c0.2,0.7,0.5,1.2,1,1.5s1.1,0.4,1.8,0.2l3-0.7l-0.1-0.2v-0.1v-0.1
			v-0.2H11l-2.6,0.7c-0.7,0.2-1.2,0.1-1.6-0.1c-0.3-0.2-0.5-0.5-0.6-0.9C6,37.7,6.4,37.2,7.7,37l2.9-0.6l-0.1-0.3l-0.1-0.3v-0.2
			v-0.3L10.2,35.4z M12.4,43.4l-4.2,3l0.2,0.2v0.1l0,0l0.1,0.2l0.1-0.1c0,0,2.6-1.8,3-2.1c-0.1,0.5-1,4.4-1,4.4l0,0.6v0.1l0.2,0.3
			l4.4-3.1L15,46.8l-0.1-0.1l-0.1-0.1l-0.1-0.2l-0.1,0.1c0,0-2.4,1.7-2.9,2c0.1-0.5,1-4.9,1-4.9l-0.3-0.4L12.4,43.4z M17.8,50.1
			l-3.2,4.1l0.2,0.2l0.2,0.1l0.2,0.1l0.2,0.2l0.1-0.1l3.2-4.1l-0.3-0.2l-0.2-0.1l-0.1-0.1L17.8,50.1L17.8,50.1z M21.4,52.7
			c0,0.3,0,1,0,1.9c0,1.1,0,2.6,0.1,3.7v0.1h0.2h0.1h0.1l0.2,0.1l0.1-0.1c0.6-0.7,3.5-3.5,3.9-3.8l0.2-0.2l-0.4-0.1h-0.1l-0.2-0.1
			l-0.2-0.1l-0.1,0.1l-0.1,0.1l-0.9,1l-1.5,1.6l-0.5,0.4c0,0,0,0-0.1,0.1c0-0.4,0-2.2,0-2.2v-1.4V53v-0.1h-0.1H22l-0.1-0.2l-0.2-0.1
			l-0.3-0.2V52.7z M29.1,55.3l-0.4,5.2l3,0.2v-0.2v-0.1v-0.1l0.1-0.3h-0.2c-0.2,0-0.4,0-0.7,0h-0.3c0,0-0.6,0-0.9-0.1
			c0-0.2,0.1-1.6,0.1-1.9c0.2,0,1,0.1,1,0.1h0.4l0.5,0.1V58v-0.1v-0.1v-0.1l0.1-0.2h-0.2h-0.3h-0.4c0,0-0.8-0.1-1-0.1
			c0-0.2,0.1-1.3,0.1-1.6c0.2,0,0.4,0,0.4,0l0,0l0.7,0.1c0.3,0,0.5,0.1,0.6,0.1l0.2,0.1v-0.3v-0.1v-0.1v-0.3h-0.2l-2.8-0.2
			L29.1,55.3z M37.5,54.8l-1.7,0.4l1.2,5.2l0.3-0.1l0.2-0.1h0.2H38V60c0,0-0.4-2-0.5-2.3c0,0,0,0,0.1,0c0.1,0.1,0.7,0.5,0.7,0.5
			l1.1,0.9l0.6,0.5l0.1,0.1h0.1h0.1l0.3-0.1h0.2l0.5-0.1l-0.2-0.2l-0.2-0.2l-0.4-0.3c0,0-1.3-1-1.7-1.4c0.7-0.4,1.1-0.9,1.1-1.5
			c0-0.1,0-0.2,0-0.3C39.3,54.8,38.6,54.6,37.5,54.8z M37.7,55.3c0.5,0,0.7,0.2,0.8,0.6c0,0.1,0,0.1,0,0.2c0,0.4-0.2,0.7-0.6,0.9
			c-0.2,0.1-0.6,0.2-0.7,0.2c-0.1-0.2-0.3-1.5-0.4-1.7C37.1,55.5,37.5,55.4,37.7,55.3z M44,52L44,52c-0.5,0.3-0.8,0.7-0.9,1.1
			c-0.1,0.4,0,0.8,0.2,1.1c0.5,0.9,1.2,0.7,1.9,0.7c0.6-0.1,1.1-0.1,1.3,0.3c0.1,0.2,0.2,0.5,0.1,0.7c-0.1,0.2-0.2,0.4-0.4,0.5
			c-0.4,0.2-0.8,0.2-1.3-0.1h-0.1l-0.3,0.1v0.1c0.1,0.2,0.2,0.4,0.2,0.6v0.1h0.1c0.4,0.1,1.1-0.1,1.4-0.2c0.5-0.3,0.9-0.7,1-1.2
			c0.1-0.4,0.1-0.9-0.2-1.4c-0.4-0.8-1.2-0.7-1.9-0.6c-0.6,0.1-1.1,0.2-1.3-0.3c-0.1-0.2-0.1-0.3-0.1-0.5c0.1-0.2,0.2-0.4,0.4-0.5
			c0.3-0.2,0.7-0.1,1,0.1l0.1,0.1l0.2-0.1v-0.2c0-0.2-0.1-0.3-0.1-0.5v-0.1h-0.1C44.8,51.7,44.3,51.8,44,52z M48.6,48.5L48.6,48.5
			l-0.2,0.2l-0.2,0.1L48,49l0.1,0.1l3.7,3.7l0.2-0.2l0.1-0.2l0.1-0.1l0.2-0.2L52.3,52l-3.7-3.7L48.6,48.5z M53,42.1l-2,3.5l0.2,0.1
			h0.1l0.1,0.1l0.2,0.2l0.1-0.2c0.1-0.3,0.3-0.7,0.6-1.3c0.2,0.1,4.1,2.3,4.1,2.3l0.1-0.2l0.1-0.2l0.1-0.2l0.2-0.2l-0.1-0.1
			c0,0-3.7-2.1-4-2.3c0.2-0.4,0.5-0.8,0.7-1.2l0.1-0.2l-0.2-0.1l0,0.1l-0.1-0.1l-0.2-0.2L53,42.1z M54.7,35.1L54.7,35.1v0.3v0.2v0.2
			l0.1,0.1l0.2,0.2c0.4,0.4,1.4,1.1,1.8,1.5c-0.6,0.2-1.9,0.7-2.5,0.8h-0.1v0.3v0.2l-0.1,0.3L54,39.6l0.3-0.1c0,0,3.1-1.2,3.2-1.2
			c0.1,0,2.2,0.4,2.2,0.4v-0.3v-0.2V38l0.1-0.3h-0.2c0,0-2.1-0.4-2.2-0.4c-0.2-0.1-0.4-0.3-0.6-0.5l-1.1-1l-0.8-0.9L54.7,35.1z
			 M7.9,20.6L7.9,20.6v0.1l-0.1,0.1L7.7,21l0.2,0.1c0,0,2.8,1.1,3.2,1.3c-0.5,0.2-4.7,1.8-4.7,1.8l-0.2,0.5l5,2.1l0.1-0.2v-0.1
			l0.1-0.1l0.1-0.2l-0.2-0.1c0,0-2.9-1.2-3.4-1.4c0.5-0.2,4.2-1.5,4.2-1.5l0.6-0.2v-0.1l0.1-0.3l-5-2.1L7.9,20.6z M12.8,13.7
			l-0.2,0.2l2.3,5.6l0.2-0.3l0.1-0.1l0.1-0.1l0.2-0.2v-0.1c-0.3-0.6-0.6-1.2-0.9-1.7c0,0,0,0,0-0.1c0.1-0.1,1-1.1,1.2-1.2
			c0.6,0.2,1.2,0.5,1.9,0.8h0.1l0.1-0.2l0.2-0.2l0.2-0.2l0.3-0.3l-0.3,0.1L12.8,13.7L12.8,13.7z M13.7,15c0.4,0.1,1.1,0.4,1.4,0.5
			c-0.2,0.2-0.6,0.7-0.8,0.9C14.2,16.1,13.9,15.3,13.7,15z M21.4,7.8l-3.5,1.9L18,9.9l0.1,0.1v0.1l0.1,0.2l0.2-0.1
			c0.3-0.2,0.7-0.4,1.3-0.7c0.1,0.2,2.2,4.2,2.2,4.2l0.2-0.1l0.2-0.1l0.2-0.1l0.3-0.1l-0.1-0.1c0,0-2-3.8-2.1-4
			C21,9,21.4,8.8,21.9,8.6l0.2-0.1L22,8.3l-0.1-0.1V8.1l-0.1-0.2L21.4,7.8z M27,6.2h-0.1l-0.2,0.1h-0.2h-0.3v0.2l1.1,5.1l0.2-0.1
			l0.2-0.1h0.2h0.3v-0.2l-1.1-5.1L27,6.2z M33.6,6.1c-0.6,0.4-1,1-1.1,1.8l0,0c-0.1,0.8,0,1.5,0.4,2.1c0.4,0.6,1.1,1,1.9,1.1
			c0.9,0.1,1.7,0,2.3-0.5c0.6-0.4,1-1.1,1.1-1.9c0.1-0.7,0-1.4-0.4-1.9c-0.4-0.6-1.2-1-2.1-1.2C35,5.5,34.2,5.6,33.6,6.1z M35,10.6
			c-1.1-0.2-1.7-1.1-1.5-2.4c0.1-0.8,0.4-1.4,0.9-1.7c0.4-0.3,0.9-0.4,1.4-0.3c0.6,0.1,1,0.4,1.3,0.9s0.3,1,0.2,1.6
			c-0.1,0.5-0.4,1.2-0.9,1.6C36,10.5,35.5,10.6,35,10.6z M44,8.3l-2.6,4.5l0.2,0.1l0.1,0.1l0.1,0.1l0.2,0.2l0.1-0.2
			c0,0,1.6-2.8,1.8-3.2c0.1,0.5,1,4.4,1,4.4l0.1,0.6h0.1l0.3,0.2l2.6-4.7l-0.2-0.1h-0.1l-0.1-0.1l-0.2-0.1l0,0.1
			c0,0-1.5,2.6-1.7,3.1c-0.1-0.5-1.1-4.8-1.1-4.8l-0.4-0.2H44z M54,15.9l-5.7,1.5l0.2,0.2l0.1,0.1l0.1,0.1l0.1,0.2h0.1
			c0.6-0.2,1.2-0.4,1.8-0.6c0,0,0,0,0.1,0c0.1,0.1,0.9,1.2,1,1.3c-0.3,0.5-0.6,1.1-1,1.8l-0.1,0.1l0.2,0.2l0.2,0.2l0.1,0.2l0.2,0.3
			l0.1-0.2l2.7-5L54,15.9L54,15.9z M52.9,16.8c-0.2,0.4-0.6,1.1-0.7,1.3c-0.2-0.2-0.6-0.7-0.7-0.9C51.7,17.1,52.5,16.9,52.9,16.8z
			 M58,22.9l-4.9,1.6l0.9,2.9l0.2-0.1l0.1-0.1h0.1l0.3-0.1l-0.1-0.2l0,0l-0.3-0.6L54.2,26c0,0-0.2-0.6-0.3-0.8
			c0.3-0.1,4.5-1.4,4.5-1.4l-0.1-0.3l-0.1-0.2l-0.1-0.2L58,22.8L58,22.9z M56.5,31c0,0.5,0.4,1,1,1c0.5,0,1-0.4,1-1c0-0.5-0.4-1-1-1
			C57,30.1,56.5,30.5,56.5,31z M6.6,30.5c0,0.5,0.4,1,1,1c0.6,0,1-0.4,1-1c0-0.5-0.4-1-1-1S6.6,30,6.6,30.5z"/>
		<g>
			<rect x="19.8" y="43.8" class="st2" width="25.6" height="1.4"/>
			<g>
				<polygon class="st2" points="25.1,42.3 25.5,27.4 24.2,27.4 24.6,42.3 				"/>
			</g>
			<g>
				<polygon class="st2" points="40.5,42.3 40.9,27.5 39.6,27.5 40,42.3 				"/>
			</g>
			<g>
				<polygon class="st2" points="43.5,42.3 43.9,27.5 42.6,27.5 43,42.3 				"/>
			</g>
			<rect x="19.8" y="25" class="st2" width="25.6" height="0.9"/>
			<g>
				<polygon class="st2" points="22.1,42.3 22.5,27.4 21.2,27.4 21.6,42.3 				"/>
			</g>
			<g>
				<path class="st2" d="M44.1,23.5c0,0.1-0.1,0.2-0.4,0.1c-0.1-0.1-0.4-0.4-0.5-0.5c-2.3-2.8-6.3-4.3-10.6-4.3s-8.9,2-10.6,4.4
					c0,0.1-0.1,0.1-0.1,0.1c-0.2,0.3-0.7,0.5-0.7,0.3c1.3-3.3,6.1-6,11.5-6C38,17.5,42.8,20.1,44.1,23.5z"/>
				<path class="st2" d="M27.3,23.3c1.2-1,3.2-1.8,5.4-1.8s4.2,0.8,5.3,1.8c0,0,0.1,0.1-0.2,0.1s-0.8-0.1-0.9-0.2
					c-1.2-0.4-2.9-0.7-4.3-0.7c-1.2,0-2.6,0.3-4,0.7C28.3,23.4,27,23.6,27.3,23.3z"/>
				<path class="st2" d="M40.4,23.1c0.1,0.1,0.3,0.2,0.4,0.3c0.3,0.1,0.6,0.1,0.4-0.1c-1.3-2.1-4.7-3.9-8.6-3.9s-7.4,1.7-8.7,3.9
					c-0.1,0.1,0.1,0.1,0.2,0.1c0.2,0,0.5-0.2,0.6-0.4c1.7-1.4,5-2.5,7.9-2.5C35.6,20.7,38.8,21.8,40.4,23.1z"/>
			</g>
			<polygon class="st2" points="36.7,27.5 38.1,27.5 37.6,42.3 37.2,42.3 36.8,28.6 36.8,28.6 28.3,28.6 28.3,28.6 27.9,42.3 
				27.4,42.3 27,27.5 28.3,27.5 28.3,27.5 			"/>
		</g>
	</g>
	<g>
		<path class="st0" d="M59.4,61.1c-0.4,0.3-0.8,0.5-1.3,0.5s-1-0.2-1.3-0.5c-0.4-0.4-0.5-0.8-0.5-1.3s0.2-1,0.6-1.3
			c0.4-0.3,0.8-0.5,1.3-0.5s0.9,0.2,1.3,0.5c0.4,0.4,0.5,0.8,0.5,1.3C59.9,60.3,59.8,60.8,59.4,61.1z M57,58.7
			c-0.3,0.3-0.4,0.7-0.4,1.1c0,0.4,0.1,0.8,0.4,1.1c0.3,0.3,0.7,0.4,1.1,0.4c0.4,0,0.8-0.2,1.1-0.5s0.4-0.7,0.4-1.1
			c0-0.4-0.1-0.8-0.4-1.1c-0.3-0.3-0.7-0.5-1.1-0.5C57.7,58.3,57.3,58.4,57,58.7z M57.3,60.8v-2.1c0.1,0,0.3,0,0.6,0s0.4,0,0.4,0
			c0.2,0,0.3,0,0.4,0.1c0.2,0.1,0.3,0.3,0.3,0.5s0,0.3-0.1,0.4c-0.1,0.1-0.2,0.1-0.4,0.1c0.1,0,0.2,0.1,0.3,0.1
			c0.1,0.1,0.2,0.3,0.2,0.5v0.2c0,0,0,0,0,0.1c0,0,0,0,0,0.1v0.1h-0.6c0-0.1,0-0.2,0-0.3s0-0.2,0-0.3s-0.1-0.1-0.1-0.2
			c0,0-0.1,0-0.2,0H58h-0.1v0.7C57.9,60.8,57.3,60.8,57.3,60.8z M58.3,59.2c-0.1,0-0.2,0-0.3,0h-0.1v0.5h0.2c0.1,0,0.2,0,0.3-0.1
			s0.1-0.1,0.1-0.2C58.4,59.3,58.4,59.2,58.3,59.2z"/>
	</g>
</g>
</svg>
