<?xml version="1.0" encoding="utf-8"?>
<!-- Generator: Adobe Illustrator 23.0.3, SVG Export Plug-In . SVG Version: 6.00 Build 0)  -->
<svg version="1.1" id="Layer_1" xmlns="http://www.w3.org/2000/svg" xmlns:xlink="http://www.w3.org/1999/xlink" x="0px" y="0px"
	 viewBox="0 0 32 32" style="enable-background:new 0 0 32 32;" xml:space="preserve">
<style type="text/css">
	.st0{fill:#398ECE;}
</style>
<title>down-open</title>
<path class="st0" d="M30,14.4L16.8,27.6C16.6,27.9,16.3,28,16,28c-0.3,0-0.6-0.1-0.8-0.4L2,14.4c-0.2-0.2-0.4-0.5-0.4-0.8
	c0-0.3,0.1-0.6,0.4-0.8l3-2.9c0.2-0.2,0.5-0.4,0.8-0.4s0.6,0.1,0.8,0.4l9.5,9.5l9.5-9.5c0.2-0.2,0.5-0.4,0.8-0.4s0.6,0.1,0.8,0.4
	l2.9,2.9c0.2,0.2,0.4,0.5,0.4,0.8C30.4,13.9,30.3,14.2,30,14.4z"/>
</svg>
