<?xml version="1.0" encoding="utf-8"?>
<!-- Generator: Adobe Illustrator 24.1.2, SVG Export Plug-In . SVG Version: 6.00 Build 0)  -->
<svg version="1.1" id="Layer_1" xmlns="http://www.w3.org/2000/svg" xmlns:xlink="http://www.w3.org/1999/xlink" x="0px" y="0px"
	 viewBox="0 0 448 512" style="enable-background:new 0 0 448 512;" xml:space="preserve">
<style type="text/css">
	.st0{fill:#003161;}
</style>
<path class="st0" d="M254.5,154.4l65.6,65.6H24c-13.3,0-24,10.7-24,24v24c0,13.3,10.7,24,24,24h296.1l-65.6,65.6
	c-9.4,9.4-9.4,24.6,0,33.9l17,17c9.4,9.4,24.6,9.4,33.9,0L441,273c9.4-9.4,9.4-24.6,0-33.9L305.5,103.5c-9.4-9.4-24.6-9.4-33.9,0
	l-17,17C245.2,129.9,245.2,145.1,254.5,154.4L254.5,154.4z"/>
</svg>
