<svg xmlns="http://www.w3.org/2000/svg" width="36.291" height="32.471" viewBox="0 0 36.291 32.471">
  <g id="chat" transform="translate(-0.905 -1.005)">
    <g id="Chat_icon" transform="translate(0.905 1.005)">
      <path id="Shape" d="M.111,32.471v0c1.429-2.778,3.108-6.661,3-9.383A12.961,12.961,0,0,1,0,14.779,13.414,13.414,0,0,1,5.48,4.194a19.126,19.126,0,0,1,5.8-3.083A22.037,22.037,0,0,1,25.054,1.1a18.959,18.959,0,0,1,5.771,3.058,13.434,13.434,0,0,1,5.466,10.626A12.4,12.4,0,0,1,35,20.257a14.771,14.771,0,0,1-3.657,4.689,19.81,19.81,0,0,1-13.026,4.5,29.2,29.2,0,0,1-6.1-.755C9.651,30.209,3.938,31.833.113,32.471ZM18.2,2.912A17.507,17.507,0,0,0,7.436,6.378,10.662,10.662,0,0,0,3,14.779,10.484,10.484,0,0,0,6.1,21.9a13.432,13.432,0,0,1-.887,6.257,19.865,19.865,0,0,0,6.437-2.7,23.8,23.8,0,0,0,6.659.97,18.028,18.028,0,0,0,10.2-3.115,10.414,10.414,0,0,0,4.786-8.536,10.685,10.685,0,0,0-4.425-8.4A17.292,17.292,0,0,0,18.2,2.912Zm7.547,13.917a2.159,2.159,0,1,1,2.219-2.158A2.192,2.192,0,0,1,25.748,16.829Zm-7.547,0a2.159,2.159,0,1,1,2.22-2.158A2.192,2.192,0,0,1,18.2,16.829Zm-7.546,0a2.159,2.159,0,1,1,2.219-2.158A2.192,2.192,0,0,1,10.654,16.829Z" fill="#315fa3"/>
    </g>
  </g>
</svg>
