<svg id="ic_phone_in_talk_48px" xmlns="http://www.w3.org/2000/svg" width="38" height="38" viewBox="0 0 38 38">
  <path id="Shape" d="M35.889,38a35.672,35.672,0,0,1-13.971-2.82,35.764,35.764,0,0,1-11.408-7.691A35.776,35.776,0,0,1,0,2.111,2.114,2.114,0,0,1,2.111,0H9.5a2.113,2.113,0,0,1,2.111,2.111,24.1,24.1,0,0,0,1.2,7.546A2.112,2.112,0,0,1,12.3,11.8L7.653,16.457a32.046,32.046,0,0,0,13.912,13.9L26.21,25.7a2.1,2.1,0,0,1,1.495-.618,2.127,2.127,0,0,1,.647.1,24.083,24.083,0,0,0,7.538,1.2A2.113,2.113,0,0,1,38,28.5v7.389A2.113,2.113,0,0,1,35.889,38ZM38,19H33.778A14.795,14.795,0,0,0,19,4.222V0A19,19,0,0,1,38,19Zm-8.444,0H25.333A6.34,6.34,0,0,0,19,12.667V8.445A10.568,10.568,0,0,1,29.556,19Z" fill="#315fa3"/>
</svg>
