<!-- Generator: Adobe Illustrator 22.0.1, SVG Export Plug-In . SVG Version: 6.00 Build 0)  -->
<svg version="1.1" id="Layer_1" xmlns="http://www.w3.org/2000/svg" xmlns:xlink="http://www.w3.org/1999/xlink" x="0px" y="0px"
	 viewBox="0 0 391.6 70" style="enable-background:new 0 0 391.6 70;" xml:space="preserve">
<style type="text/css">
	.st0{fill:#FFFFFF;}
	.st1{fill:#1A3660;}
	.st2{fill:#74808A;}
</style>
<title>Untitled-1</title>
<path class="st0" d="M99.7,17.1c-0.9,0-1.4,0.1-1.7,0.8s-0.3,2.2-0.3,7.9v8.9c0,0-4.9-5.8-7.4-8.7c-2-2.3-5.2-6.1-5.2-6.1
	s0,2.1,0,5.7c0,4.9,0,6.2,0.3,7c0.1,0.4,0.5,0.8,1.8,0.8v0.8c0,0-1.7-0.1-2.8-0.1s-2.7,0.1-2.7,0.1v-0.8c0.9,0,1.4-0.1,1.7-0.8
	s0.3-1.6,0.3-7.2c0-3.4,0-7.1,0-7.1s-0.4-1.1-2.3-1.1v-1c0.9,0,1.6,0.1,2.6,0.1s2.1-0.1,2.1-0.1l5.6,6.6c1.5,1.8,4.7,5.4,4.7,5.4
	s0-2.9,0-4.9c0-2.4,0-4.9-0.3-5.5s-0.9-0.9-1.8-0.9v-0.8c1.1,0.1,1.6,0.1,2.7,0.1c0.9,0,1.4,0,2.9-0.1L99.7,17.1z"/>
<path class="st0" d="M118.4,34.1c-1.3,0-1.9,0-3.2,0.1v-0.8c1.3,0,1.8-0.4,1.8-0.9c-0.2-1-0.5-2-1-3c-0.3-0.8-1-2.4-1-2.4h-5.5
	c0,0-0.8,1.8-1.3,2.9c-0.3,0.7-0.6,1.5-0.7,2.2c0,0.8,0.6,1.2,2.3,1.2v0.8l-3.7-0.1c-0.8,0-2.7,0.1-2.7,0.1v-0.8
	c1,0.1,2-0.5,2.3-1.5c0.5-0.8,1.9-4.2,3.2-7c1.7-3.8,3.6-8.2,4.2-9.7c0.4,1,3.2,7.5,4.4,10.3c0.8,1.8,2.2,5.2,2.8,6.4
	s1.1,1.5,1.9,1.5v0.8C121,34.2,119.3,34.2,118.4,34.1 M112.2,20.5c-0.1,0.3-1.8,4.2-2.3,5.4h4.6C113.9,24.4,112.9,22.1,112.2,20.5"
	/>
<path class="st0" d="M138.9,20.1c0-1.7-0.5-2.5-2.5-2.5h-2.8v10.2c-0.1,1.5,0,3,0.2,4.5c0.2,0.6,0.7,0.9,1.7,0.9v0.8
	c0,0-2-0.1-3.5-0.1s-3.3,0.1-3.3,0.1v-0.8c0.9,0,1.4-0.2,1.6-0.9c0.2-1.5,0.3-3,0.2-4.5V17.7h-2.7c-1.8,0-2.5,0.7-2.5,2.5h-1
	c0-0.6,0.1-1.1,0.1-1.8v-2.1c1.4,0,2.4,0.1,3.6,0.1s2.4,0,4.3,0c2.5,0,4.9,0,7.4-0.1c0,0.9,0,0.6,0,1c0,1.3,0,1.9,0.1,3L138.9,20.1z
	"/>
<path class="st0" d="M148.8,34.1c-1.4,0-3.3,0.1-3.3,0.1v-0.8c0.9,0,1.4-0.2,1.6-0.9s0.2-2.2,0.2-7.9c0-4.4,0-6.2-0.2-6.7
	c-0.4-0.7-0.7-0.8-1.7-0.8v-0.8c0,0,2,0.1,3.5,0.1c1.2,0,3.3-0.1,3.3-0.1v0.8c-0.9,0-1.4,0.1-1.6,0.7s-0.3,1.8-0.3,6.5
	c0,5.4,0,7.7,0.3,8.2s0.6,0.9,1.6,0.9v0.8C152.3,34.2,150.2,34.1,148.8,34.1"/>
<path class="st0" d="M167.4,34.5c-6.7,0-9.2-5-9.2-9.2c-0.1-5,4-9.2,9-9.2c0.2,0,0.3,0,0.5,0c6.1,0,9,4.4,9,9.1
	c0.2,5-3.7,9.1-8.7,9.3C167.8,34.5,167.6,34.5,167.4,34.5 M167.5,17.4c-3.8,0-5.7,3-5.7,7.5c0,4.9,2.2,8.4,5.9,8.4s5.6-3.2,5.6-8
	C173.3,21.9,171.7,17.4,167.5,17.4"/>
<path class="st0" d="M200.5,17.1c-0.9,0-1.4,0.1-1.7,0.8s-0.3,2.2-0.3,7.9v8.9c0,0-4.9-5.8-7.4-8.7c-2-2.3-5.2-6.1-5.2-6.1
	s0,2.1,0,5.7c0,4.9,0,6.2,0.3,7c0.1,0.4,0.5,0.8,1.8,0.8v0.8c0,0-1.7-0.1-2.8-0.1s-2.7,0.1-2.7,0.1v-0.8c0.9,0,1.4-0.1,1.7-0.8
	s0.3-1.6,0.3-7.2c0-3.4,0-7.1,0-7.1s-0.4-1.1-2.3-1.1v-1c0.9,0,1.6,0.1,2.6,0.1s2.1-0.1,2.1-0.1l5.6,6.6c1.5,1.8,4.6,5.4,4.6,5.4
	s0-2.9,0-4.9c0-2.4,0-4.9-0.3-5.5s-0.9-0.9-1.8-0.9v-0.8c1.1,0.1,1.6,0.1,2.7,0.1c0.9,0,1.4,0,2.9-0.1L200.5,17.1z"/>
<path class="st0" d="M218.6,34.1c-1.3,0-1.9,0-3.2,0.1v-0.8c1.3,0,1.8-0.4,1.8-0.9c-0.2-1-0.5-2-1-3c-0.3-0.8-1-2.4-1-2.4h-5.5
	c0,0-0.8,1.8-1.3,2.9c-0.3,0.7-0.6,1.5-0.7,2.2c0,0.8,0.6,1.2,2.3,1.2v0.8l-3.7-0.1c-0.8,0-2.7,0.1-2.7,0.1v-0.8
	c1,0.1,2-0.5,2.3-1.5c0.5-0.8,1.9-4.2,3.2-7c1.7-3.8,3.6-8.2,4.2-9.7c0.4,1,3.2,7.5,4.4,10.3c0.8,1.8,2.2,5.2,2.8,6.4
	s1.1,1.5,1.9,1.5v0.8C221.2,34.2,219.4,34.2,218.6,34.1 M212.4,20.5c-0.1,0.3-1.8,4.2-2.3,5.4h4.6C214.1,24.4,213.2,22.1,212.4,20.5
	"/>
<path class="st0" d="M231.4,34.1c-1.1,0-3.6,0.1-3.6,0.1v-0.8c0.9,0,1.4-0.2,1.6-0.9s0.2-2.2,0.2-7.9c0-4.4,0-6.1-0.2-6.7
	s-0.7-0.8-1.7-0.8v-0.8c1.6,0.1,2.3,0.1,3.5,0.1s3.3-0.1,3.3-0.1v0.8c-0.9,0-1.5,0.1-1.7,0.7c-0.3,2.2-0.4,4.3-0.3,6.5
	c0,7.8,0,7.8,0.5,8.2s1,0.4,2.5,0.4c1.1,0.2,2.2-0.2,3-1c0.3-0.4,0.5-1,0.5-1.5h0.9c0,1,0,1.4,0,2.7c0,0.4,0,1.2,0,1.2
	S233.3,34.2,231.4,34.1"/>
<path class="st0" d="M110.8,47.4c-0.5,0-1.1,0-1.2,0.4c-0.2,1.7-0.2,3.4-0.2,5.1c0,3.2-0.6,5.8-4.7,5.8c-2.2,0-4.4-0.9-4.4-4.1v-5.2
	c0-0.5,0-1.1-0.1-1.6c-0.1-0.4-0.5-0.5-1.1-0.5v-0.5c0.7,0,1.1,0,2,0s1.4,0,2,0v0.5c-0.5,0-1,0-1.1,0.5c-0.2,1.5-0.2,3-0.2,4.5
	c0,3.7,0,5.6,3.2,5.6c2.4,0,3.5-1.2,3.5-4.8v-3c0-0.8-0.1-1.6-0.3-2.4c-0.2-0.4-0.5-0.4-1.4-0.4v-0.5c0.6,0,1.2,0,2.1,0
	c1,0,1.3,0,1.8,0L110.8,47.4z"/>
<path class="st0" d="M122.7,46.9c0.7,0,1,0,1.7,0c0.4,0,1.1,0,1.8,0v0.5c-0.7,0-1,0.1-1.1,0.5s-0.2,1.6-0.2,5.4c0,2.9,0,3.5,0,5.9
	c0,0-3.5-4.7-5.1-6.5c-1.2-1.5-3-4-3-4s0,0.8,0,4.2c-0.1,1.6,0,3.2,0.2,4.8c0.1,0.4,0.5,0.5,1.2,0.5v0.5c-0.5,0-1,0-1.7,0
	s-1.3,0-1.8,0v-0.5c0.6,0,0.9,0,1.1-0.5s0.2-1.6,0.2-5.3v-4.2c0,0-0.2-0.7-1.5-0.7v-0.5c0.6,0,1,0,1.5,0s0.9,0,1.4,0
	c0.6,0.7,2.4,3.1,3.8,4.9c0.9,1.1,1.8,2.3,3,3.8c0-0.1,0-0.4,0-2.9c0-3.5,0-4.4-0.2-4.8s-0.5-0.5-1.2-0.5L122.7,46.9z"/>
<path class="st0" d="M134.5,58.6c-1,0-1.3,0-2,0c-0.5,0-1,0-1.9,0v-0.5c0.5,0,0.9,0,1.1-0.5s0.1-1.2,0.1-5.4c0.1-1.5,0-2.9-0.1-4.4
	c-0.2-0.4-0.6-0.5-1.1-0.5v-0.5c0.9,0,1.2,0,2,0c0.5,0,1,0,1.9,0v0.5c-0.6,0-0.9,0-1.1,0.5s-0.2,1.3-0.2,4.4
	c-0.1,1.8-0.1,3.6,0.1,5.4c0.2,0.5,0.6,0.5,1.1,0.5L134.5,58.6z"/>
<path class="st0" d="M148.2,48.5c-0.3,0.5-1.1,2.7-2,4.6c-1,2.4-2.2,5.2-2.4,5.9c-0.3-0.8-1.7-4.6-2.5-6.5c-0.5-1.5-1.1-3-1.8-4.5
	c-0.2-0.4-0.7-0.7-1.1-0.6v-0.5c0.6,0,1.2,0,2,0s1.7,0,2.1,0v0.5c-0.7,0-1.2,0.1-1.2,0.4c0,0.5,0.2,0.9,1.3,3.9
	c0.6,1.8,1.6,4.2,1.6,4.2s1.1-2.8,1.7-4.2c0.5-1.2,1-2.4,1.2-3.7c0-0.4-0.4-0.7-1.4-0.7v-0.5c0.5,0,1.7,0,2,0c0.7,0,1.4,0,1.8,0v0.5
	C149,47.4,148.6,47.6,148.2,48.5"/>
<path class="st0" d="M161.1,56.2c0,0,0,0.6,0,1.8c0,0.2,0,0.6,0,0.6c-1,0-4.2-0.1-5.5-0.1c-1,0-1.8,0-2.3,0v-0.5
	c0.6,0,0.8-0.1,1.1-0.5c0.1-0.2,0.1-1.4,0.1-5.4c0.1-1.5,0-2.9-0.1-4.4c-0.2-0.4-0.5-0.5-1.2-0.5v-0.5c0.5,0,1.3,0,2.1,0
	c0.6,0,4.5-0.1,5.2-0.1c0,0,0,0.6,0,0.9c0,0.7,0,1.3,0,1.3H160c0-1.3-0.2-1.4-2.4-1.4c-0.6,0-1.3,0-1.7,0V52h1.4c0.5,0,1,0,1.4-0.1
	c0.3-0.1,0.5-0.9,0.5-1.2h0.5c0,0.2,0,0.9,0,1.5s0,1.5,0,1.6h-0.5c0-0.3,0-0.7-0.2-1c-0.2-0.2-0.5-0.2-1.6-0.2c-0.6,0-1,0-1.5,0v2.9
	c-0.1,0.6,0,1.2,0.2,1.8c0.3,0.4,0.9,0.4,2,0.4c0.7,0.1,1.3-0.1,1.9-0.5c0.3-0.4,0.4-0.8,0.4-1.2L161.1,56.2z"/>
<path class="st0" d="M173.1,58.6c0,0-0.6-0.8-1.8-2.6c-0.5-0.7-1.5-2.2-1.8-2.6c-0.5,0-0.9,0-1.4,0c0,0,0,3.9,0.1,4.2
	s0.5,0.5,1.2,0.5v0.5c-0.4,0-1,0-2,0c-0.9,0-1.5,0-2,0v-0.5c0.6,0,0.9,0,1.1-0.5s0.1-1.6,0.1-5.4c0.1-1.5,0-2.9-0.1-4.4
	c-0.2-0.5-0.5-0.5-1.2-0.5v-0.5c0.5,0,1.2,0,2.1,0s1.5,0,2.3,0c2,0,3.8,0.9,3.8,2.8c-0.1,1.5-1,2.7-2.4,3.2c0.5,0.8,1,1.5,1.5,2.3
	c0.8,1,1.5,2.1,1.9,2.5c0.3,0.3,0.7,0.5,1.1,0.5v0.5L173.1,58.6z M168.1,52.7c0.6,0,0.8,0.1,1.1,0.1c1.6,0,2.6-0.9,2.6-2.7
	c0.2-1.2-0.7-2.3-1.9-2.5c-0.2,0-0.4,0-0.6,0c-0.6,0-1.2,0-1.2,0V52.7z"/>
<path class="st0" d="M184.7,49.2c-0.1-1.3-0.6-1.9-2-1.9c-1.5,0-2.1,0.9-2.1,1.8c0,1.5,1.1,2,2.4,2.8c1.6,1.1,2.8,2,2.8,3.3
	s-1.1,3.3-4.1,3.3c-1-0.1-1.9-0.2-2.9-0.5c0,0,0-0.3,0-0.5c0-0.6-0.1-2-0.1-2h0.5c-0.1,1.2,0.8,2.3,2,2.4c0.2,0,0.4,0,0.6,0
	c2.1,0,2.6-1.2,2.6-2.1s-0.7-1.5-2.6-2.8c-1.5-1.1-2.5-1.9-2.5-3.5c0-1.3,0.9-2.9,3.6-2.9c1.1,0,1.9,0.1,2.4,0.1c0,0,0,0.4,0,0.7
	c0,0.6,0.1,1.7,0.1,1.7L184.7,49.2z"/>
<path class="st0" d="M194.2,58.6c-1,0-1.3,0-2,0c-0.5,0-1,0-1.9,0v-0.5c0.5,0,0.9,0,1.1-0.5s0.1-1.2,0.1-5.4c0.1-1.5,0-2.9-0.1-4.4
	c-0.2-0.4-0.6-0.5-1.1-0.5v-0.5c0.9,0,1.2,0,2,0c0.5,0,1,0,1.9,0v0.5c-0.6,0-0.9,0-1.1,0.5s-0.2,1.3-0.2,4.4c-0.1,1.8,0,3.6,0.1,5.4
	c0.2,0.5,0.6,0.5,1.1,0.5L194.2,58.6z"/>
<path class="st0" d="M207.2,49.3c0-1.4-0.3-1.6-1.6-1.6h-1.9v4.5c-0.1,1.8,0,3.6,0.1,5.4c0.1,0.4,0.4,0.5,1.1,0.5v0.5
	c-0.6,0-1,0-1.9,0H201v-0.5c0.6,0,0.9,0,1.1-0.5c0.2-1.8,0.2-3.6,0.1-5.4c0-2.1,0-3.1,0-4.5h-1.9c-1.4,0-1.6,0.4-1.6,1.6h-0.6
	c0-0.4,0-1,0-1.5c0-0.2,0-0.6,0-1c1.1,0,2.1,0.1,4.5,0.1c1,0,2.1,0,3,0h2.1c0,0.5,0,0.7,0,1c0,0.7,0,1.1,0,1.5L207.2,49.3z"/>
<path class="st0" d="M221.5,47.4c-0.4,0-0.8,0.1-1.2,0.4c-0.7,0.7-1.3,1.5-1.8,2.4c-0.5,0.8-1.1,1.6-1.7,2.6c-0.1,1.6,0,3.2,0.1,4.8
	c0.2,0.5,0.6,0.5,1.1,0.5v0.5c-0.5,0-1.2,0-2,0s-1.4,0-1.9,0v-0.5c0.6,0,0.9,0,1.1-0.5c0.2-0.7,0.1-1.2,0.1-4.4
	c-0.3-0.5-0.6-0.9-1.7-2.9c-0.5-0.8-1-1.6-1.5-2.3c-0.3-0.4-0.7-0.6-1.2-0.6v-0.5c0.4,0,1.6,0,2.5,0s1.1,0,1.6,0v0.5
	c-0.6,0-1,0.1-1,0.4c0.2,0.8,0.6,1.5,1.1,2.1c0.2,0.3,1,1.6,1.3,2.3c0.7-1,0.9-1.4,1.4-2.1c0.5-0.6,0.8-1.3,1-2.1
	c0-0.4-0.4-0.6-1-0.6v-0.5c0.5,0,1,0,2,0c0.7,0,1,0,1.6,0L221.5,47.4z"/>
<path class="st0 hide-mobile" d="M289.2,22h1.2l-3.5,9.7h-1.1l-3.5-9.7h1.2l2.2,6.3c0.2,0.7,0.5,1.4,0.6,2.1c0.2-0.7,0.4-1.4,0.6-2.1L289.2,22z"
	/>
<path class="st0 hide-mobile" d="M294.7,31.8c-1,0-1.9-0.3-2.5-1c-0.7-0.7-1-1.7-0.9-2.7c-0.1-1,0.3-2,0.9-2.8c0.6-0.7,1.4-1,2.3-1
	c0.8,0,1.6,0.3,2.2,0.9c0.6,0.7,0.8,1.5,0.8,2.4v0.7h-5c0,0.7,0.2,1.4,0.6,1.9c0.5,0.5,1.1,0.7,1.7,0.7c0.8,0,1.6-0.2,2.3-0.5v1
	c-0.4,0.2-0.7,0.3-1.1,0.4C295.5,31.7,295.1,31.8,294.7,31.8z M294.4,25.2c-0.5,0-1,0.2-1.4,0.6c-0.4,0.4-0.6,1-0.6,1.6h3.8
	c0-0.6-0.1-1.1-0.5-1.6C295.4,25.3,294.9,25.1,294.4,25.2z"/>
<path class="st0 hide-mobile" d="M301.5,30.9c0.2,0,0.4,0,0.6,0l0.4-0.1v0.8c-0.2,0.1-0.3,0.1-0.5,0.1c-0.2,0-0.4,0.1-0.6,0.1
	c-1.4,0-2.1-0.7-2.1-2.2v-4.3h-1v-0.5l1-0.5l0.5-1.5h0.6v1.7h2.1v0.9h-2.1v4.3c0,0.4,0.1,0.7,0.3,1
	C300.9,30.8,301.2,30.9,301.5,30.9z"/>
<path class="st0 hide-mobile" d="M307,31.8c-0.9,0-1.9-0.3-2.5-1c-0.7-0.7-1-1.7-0.9-2.7c-0.1-1,0.2-2,0.9-2.8c0.6-0.7,1.4-1,2.3-1
	c0.8,0,1.6,0.3,2.2,0.9c0.6,0.7,0.8,1.5,0.8,2.4v0.7h-5c0,0.7,0.2,1.4,0.6,1.9c0.5,0.5,1.1,0.7,1.7,0.7c0.8,0,1.6-0.2,2.3-0.5v1
	c-0.4,0.2-0.7,0.3-1.1,0.4C307.9,31.7,307.5,31.8,307,31.8z M306.8,25.2c-0.5,0-1,0.2-1.4,0.6c-0.4,0.4-0.6,1-0.6,1.6h3.8
	c0-0.6-0.1-1.1-0.5-1.6C307.7,25.3,307.3,25.1,306.8,25.2z"/>
<path class="st0 hide-mobile" d="M314.9,24.2c0.3,0,0.6,0,0.9,0.1l-0.2,1c-0.3-0.1-0.5-0.1-0.8-0.1c-0.6,0-1.1,0.3-1.5,0.7
	c-0.4,0.5-0.7,1.1-0.6,1.8v3.9h-1.1v-7.2h0.9l0.1,1.3h0c0.2-0.4,0.6-0.8,1-1.1C314,24.4,314.5,24.2,314.9,24.2z"/>
<path class="st0 hide-mobile" d="M321.6,31.6l-0.2-1h0c-0.3,0.4-0.7,0.7-1.1,0.9c-0.4,0.2-0.9,0.3-1.3,0.2c-0.6,0-1.2-0.2-1.7-0.6
	c-0.4-0.4-0.7-1-0.6-1.6c0-1.5,1.2-2.2,3.5-2.3h1.2v-0.5c0-0.5-0.1-0.9-0.4-1.3c-0.3-0.3-0.7-0.5-1.2-0.4c-0.7,0-1.4,0.2-2,0.5
	l-0.3-0.8c0.4-0.2,0.8-0.3,1.2-0.5c0.4-0.1,0.8-0.2,1.3-0.2c0.7-0.1,1.4,0.1,1.9,0.6c0.5,0.5,0.7,1.2,0.6,1.8v5L321.6,31.6z
	 M319.1,30.9c0.6,0,1.2-0.2,1.6-0.6c0.4-0.4,0.6-1,0.6-1.6v-0.6h-1.1c-0.7,0-1.3,0.1-1.9,0.4c-0.4,0.2-0.6,0.7-0.6,1.1
	c0,0.3,0.1,0.7,0.4,0.9C318.4,30.7,318.7,30.9,319.1,30.9z"/>
<path class="st0 hide-mobile" d="M329.6,31.6v-4.7c0-0.5-0.1-0.9-0.4-1.3c-0.3-0.3-0.8-0.5-1.3-0.4c-0.6-0.1-1.2,0.2-1.7,0.6
	c-0.4,0.6-0.6,1.3-0.5,2v3.8h-1.1v-7.2h0.9l0.2,1h0c0.2-0.4,0.6-0.6,1-0.8c0.4-0.2,0.9-0.3,1.4-0.3c0.7-0.1,1.4,0.2,2,0.6
	c0.5,0.5,0.7,1.3,0.7,2v4.7L329.6,31.6z"/>
<path class="st0 hide-mobile" d="M339.8,25.2h-1.8v6.4h-1.1v-6.4h-1.3v-0.5l1.3-0.4v-0.4c0-1.8,0.8-2.7,2.3-2.7c0.5,0,0.9,0.1,1.4,0.2l-0.3,0.9
	c-0.3-0.1-0.7-0.2-1.1-0.2c-0.4,0-0.7,0.1-0.9,0.4c-0.2,0.4-0.3,0.9-0.3,1.3v0.5h1.8V25.2z"/>
<path class="st0 hide-mobile" d="M347.4,28c0.1,1-0.3,2-0.9,2.8c-0.6,0.7-1.5,1-2.5,1c-0.6,0-1.2-0.1-1.7-0.5c-0.5-0.3-0.9-0.8-1.2-1.3
	c-0.3-0.6-0.4-1.3-0.4-2c-0.1-1,0.3-2,0.9-2.8c0.6-0.7,1.5-1,2.5-1c0.9,0,1.8,0.3,2.4,1C347.1,26,347.4,27,347.4,28z M341.8,28
	c0,0.7,0.1,1.5,0.6,2.1c0.8,0.9,2.2,1,3.1,0.2c0.1-0.1,0.1-0.1,0.2-0.2c0.4-0.6,0.6-1.4,0.6-2.1c0-0.7-0.1-1.5-0.6-2.1
	c-0.8-0.9-2.3-1-3.2-0.1c0,0-0.1,0.1-0.1,0.1C342,26.5,341.8,27.3,341.8,28z"/>
<path class="st0 hide-mobile" d="M350.3,24.4v4.7c0,0.5,0.1,0.9,0.4,1.3c0.3,0.3,0.8,0.5,1.3,0.4c0.6,0.1,1.2-0.2,1.7-0.6c0.4-0.6,0.6-1.3,0.5-2
	v-3.8h1.1v7.2h-0.9l-0.2-1h0c-0.2,0.4-0.6,0.6-0.9,0.8c-0.4,0.2-0.9,0.3-1.4,0.3c-0.7,0.1-1.4-0.2-2-0.6c-0.5-0.5-0.7-1.3-0.7-2
	v-4.8L350.3,24.4z"/>
<path class="st0 hide-mobile" d="M362.6,31.6v-4.7c0-0.5-0.1-0.9-0.4-1.3c-0.3-0.3-0.8-0.5-1.3-0.4c-0.6-0.1-1.2,0.2-1.7,0.6
	c-0.4,0.6-0.6,1.3-0.5,2v3.8h-1.1v-7.2h0.9l0.2,1h0.1c0.2-0.4,0.6-0.6,0.9-0.8c0.4-0.2,0.9-0.3,1.4-0.3c0.7-0.1,1.4,0.2,2,0.6
	c0.5,0.5,0.7,1.3,0.7,2v4.7L362.6,31.6z"/>
<path class="st0 hide-mobile" d="M370.9,30.6L370.9,30.6c-0.6,0.7-1.4,1.2-2.3,1.1c-0.9,0-1.7-0.3-2.2-1c-0.6-0.8-0.9-1.8-0.8-2.8
	c-0.1-1,0.2-2,0.8-2.8c1.1-1.2,3-1.3,4.2-0.2c0.1,0.1,0.2,0.2,0.2,0.2h0.1v-0.5v-0.5v-3h1.1v10.3h-0.9L370.9,30.6z M368.7,30.8
	c0.6,0.1,1.2-0.2,1.6-0.6c0.4-0.6,0.6-1.3,0.5-2V28c0.1-0.8-0.1-1.5-0.5-2.2c-0.4-0.5-1-0.7-1.6-0.7c-0.6,0-1.2,0.3-1.5,0.8
	c-0.4,0.6-0.6,1.4-0.5,2.1c-0.1,0.7,0.1,1.5,0.5,2.1C367.5,30.6,368.1,30.9,368.7,30.8z"/>
<path class="st0 hide-mobile" d="M377.3,31.8c-1,0-1.9-0.3-2.5-1c-0.7-0.7-1-1.7-0.9-2.7c-0.1-1,0.3-2,0.9-2.8c0.6-0.7,1.4-1,2.3-1
	c0.8,0,1.6,0.3,2.2,0.9c0.6,0.7,0.8,1.5,0.8,2.4v0.7h-5c0,0.7,0.2,1.4,0.7,1.9c0.5,0.5,1.1,0.7,1.7,0.7c0.8,0,1.6-0.2,2.3-0.5v1
	c-0.4,0.2-0.7,0.3-1.1,0.4C378.1,31.7,377.7,31.8,377.3,31.8z M377,25.2c-0.5,0-1,0.2-1.4,0.6c-0.4,0.4-0.6,1-0.6,1.6h3.8
	c0-0.6-0.1-1.1-0.5-1.6C378,25.3,377.5,25.1,377,25.2z"/>
<path class="st0 hide-mobile" d="M386.8,30.6L386.8,30.6c-0.6,0.7-1.4,1.2-2.3,1.1c-0.9,0-1.7-0.3-2.2-1c-0.6-0.8-0.9-1.8-0.8-2.8
	c-0.1-1,0.2-2,0.8-2.8c1.1-1.2,3-1.3,4.2-0.2c0.1,0.1,0.2,0.2,0.2,0.2h0.1v-0.5v-0.5v-3h1.1v10.3H387L386.8,30.6z M384.6,30.8
	c0.6,0.1,1.2-0.2,1.6-0.6c0.4-0.6,0.6-1.3,0.5-2V28c0.1-0.8-0.1-1.5-0.5-2.2c-0.4-0.5-1-0.7-1.6-0.7c-0.6,0-1.2,0.3-1.5,0.8
	c-0.4,0.6-0.6,1.4-0.5,2.1c-0.1,0.7,0.1,1.5,0.5,2.1C383.4,30.6,384,30.9,384.6,30.8L384.6,30.8z"/>
<path class="st0 hide-mobile" d="M390,30.9c0-0.2,0.1-0.5,0.2-0.7c0.1-0.2,0.4-0.2,0.6-0.2c0.2,0,0.4,0.1,0.6,0.2c0.1,0.2,0.2,0.4,0.2,0.7
	c0,0.2-0.1,0.5-0.2,0.7c-0.2,0.2-0.4,0.3-0.6,0.2c-0.2,0-0.4-0.1-0.6-0.2C390,31.4,390,31.2,390,30.9z"/>
<path class="st0 hide-mobile" d="M313.1,48.8h-1.3l-5.3-8.1h0c0.1,1,0.1,1.8,0.1,2.6v5.5h-1v-9.7h1.3l5.3,8.1h0c0-0.1,0-0.5-0.1-1.1s0-1.1,0-1.4
	v-5.5h1L313.1,48.8z M321.9,45.1c0.1,1-0.3,2-0.9,2.8c-0.6,0.7-1.5,1-2.5,1c-0.6,0-1.2-0.1-1.7-0.5c-0.5-0.3-0.9-0.8-1.2-1.3
	c-0.3-0.6-0.4-1.3-0.4-2c-0.1-1,0.3-2,0.9-2.8c0.6-0.7,1.5-1,2.5-1c0.9,0,1.8,0.3,2.4,1C321.6,43.1,321.9,44.1,321.9,45.1z
	 M316.3,45.1c0,0.7,0.1,1.5,0.6,2.1c0.8,0.9,2.2,1,3.1,0.2c0.1-0.1,0.1-0.1,0.2-0.2c0.4-0.6,0.6-1.4,0.6-2.1
	c0.1-0.7-0.1-1.5-0.6-2.1c-0.8-0.9-2.3-1-3.2-0.1c0,0-0.1,0.1-0.1,0.1C316.5,43.6,316.3,44.4,316.3,45.1z M328.8,48.8V44
	c0-0.5-0.1-0.9-0.4-1.3c-0.3-0.3-0.8-0.5-1.3-0.4c-0.6-0.1-1.2,0.2-1.7,0.6c-0.4,0.6-0.6,1.3-0.5,2v3.8h-1.1v-7.3h0.9l0.2,1h0
	c0.2-0.4,0.6-0.6,1-0.8c0.4-0.2,0.9-0.3,1.3-0.3c0.7-0.1,1.4,0.2,2,0.6c0.5,0.5,0.7,1.3,0.7,2v4.7L328.8,48.8z M335.5,48.9
	c-0.4,0-0.9-0.1-1.3-0.3c-0.4-0.2-0.7-0.5-1-0.8h0c0,0.4,0.1,0.8,0.1,1.2v3h-1.1V41.5h0.9l0.2,1h0.1c0.3-0.4,0.6-0.7,1-0.9
	c0.4-0.2,0.8-0.3,1.3-0.3c0.9,0,1.7,0.3,2.2,1c1,1.7,1,3.8,0,5.5C337.2,48.6,336.4,49,335.5,48.9L335.5,48.9z M335.3,42.3
	c-0.6-0.1-1.2,0.2-1.6,0.6c-0.4,0.6-0.6,1.3-0.5,2v0.2c-0.1,0.8,0.1,1.5,0.5,2.2c0.4,0.5,1,0.7,1.6,0.7c0.6,0,1.1-0.3,1.5-0.8
	c0.4-0.6,0.6-1.4,0.5-2.1c0-0.7-0.1-1.5-0.5-2.1C336.5,42.6,335.9,42.3,335.3,42.3L335.3,42.3z M343.7,41.4c0.3,0,0.6,0,0.9,0.1
	l-0.2,1c-0.3-0.1-0.5-0.1-0.8-0.1c-0.6,0-1.1,0.3-1.5,0.7c-0.4,0.5-0.7,1.1-0.6,1.8v3.9h-1.1v-7.3h0.9l0.1,1.4l0,0
	c0.2-0.4,0.6-0.8,1-1.1C342.8,41.5,343.3,41.3,343.7,41.4L343.7,41.4z M352.2,45.1c0.1,1-0.3,2-0.9,2.8c-0.6,0.7-1.5,1.1-2.5,1
	c-0.6,0-1.2-0.1-1.7-0.5c-0.5-0.3-0.9-0.8-1.2-1.3c-0.3-0.6-0.4-1.3-0.4-2c-0.1-1,0.3-2,0.9-2.8c0.6-0.7,1.5-1,2.5-1
	c0.9,0,1.8,0.3,2.4,1C352,43.1,352.3,44.1,352.2,45.1L352.2,45.1z M346.7,45.1c0,0.7,0.1,1.5,0.6,2.1c0.8,0.9,2.2,1,3.1,0.2
	c0.1-0.1,0.1-0.1,0.2-0.2c0.4-0.6,0.6-1.4,0.6-2.1c0-0.7-0.1-1.5-0.6-2.1c-0.8-0.9-2.3-1-3.2-0.1c0,0-0.1,0.1-0.1,0.1
	C346.8,43.6,346.6,44.4,346.7,45.1L346.7,45.1z M357.4,42.4h-1.8v6.4h-1.1v-6.4h-1.3v-0.5l1.3-0.4v-0.4c0-1.8,0.8-2.7,2.3-2.7
	c0.5,0,0.9,0.1,1.3,0.2l-0.3,0.9c-0.4-0.1-0.7-0.2-1.1-0.2c-0.4,0-0.7,0.1-0.9,0.4c-0.2,0.4-0.3,0.9-0.3,1.3v0.5h1.8L357.4,42.4z
	 M358.6,39.5c0-0.2,0-0.4,0.2-0.6c0.1-0.1,0.3-0.2,0.5-0.2c0.2,0,0.3,0.1,0.5,0.2c0.1,0.1,0.2,0.3,0.2,0.5c0,0.2-0.1,0.4-0.2,0.5
	c-0.1,0.1-0.3,0.2-0.5,0.2c-0.2,0-0.3-0.1-0.5-0.2C358.7,39.9,358.6,39.7,358.6,39.5L358.6,39.5z M359.8,48.8h-1.1v-7.3h1.1V48.8z
	 M364.5,48c0.2,0,0.4,0,0.6,0l0.4-0.1v0.8c-0.2,0.1-0.3,0.1-0.5,0.1c-0.2,0-0.4,0.1-0.6,0.1c-1.4,0-2.1-0.7-2.1-2.2v-4.3h-1v-0.5
	l1-0.5l0.5-1.5h0.6v1.7h2.1v0.9h-2.1v4.3c0,0.4,0.1,0.7,0.3,1C363.9,47.9,364.2,48,364.5,48L364.5,48z M366.8,48
	c0-0.2,0.1-0.5,0.2-0.7c0.2-0.2,0.4-0.2,0.6-0.2c0.2,0,0.4,0.1,0.6,0.2c0.2,0.2,0.2,0.4,0.2,0.7c0,0.2-0.1,0.5-0.2,0.7
	c-0.2,0.2-0.4,0.2-0.6,0.2c-0.2,0-0.4-0.1-0.6-0.2C366.8,48.5,366.8,48.3,366.8,48L366.8,48z"/>
<rect x="260.6" class="st0 hide-mobile" width="0.7" height="70"/>
<g>
	<g>
		<path class="st0" d="M33.2,2.3C15.2,2.3,0.6,17,0.6,35c0,18,14.6,32.6,32.7,32.6c18,0,32.7-14.6,32.7-32.6
			C65.9,17,51.2,2.3,33.2,2.3z"/>
		<path class="st1" d="M33.2,4.6C50,4.6,63.6,18.2,63.6,35c0,16.8-13.6,30.4-30.4,30.4C16.5,65.3,2.9,51.7,2.9,35
			C2.9,18.2,16.5,4.6,33.2,4.6z M13.3,35c0,11,8.9,19.9,19.9,19.9c11,0,19.9-8.9,19.9-19.9c0-11-8.9-19.9-19.9-19.9
			C22.2,15.1,13.3,24,13.3,35z M10.8,37.7l-2.9,0.6c-0.6,0.1-1.3,0.4-1.6,0.9c-0.3,0.5-0.3,1-0.2,1.8c0.2,0.7,0.5,1.2,1,1.5
			c0.5,0.3,1.1,0.4,1.8,0.2l3-0.7l-0.1-0.2l0-0.1l0-0.1l0-0.2l-0.2,0L9,42.1c-0.7,0.2-1.2,0.1-1.6-0.1c-0.3-0.2-0.5-0.5-0.6-0.9
			c-0.2-1.1,0.2-1.6,1.5-1.8l2.9-0.6l-0.1-0.3L11,38.1l0-0.2l0-0.3L10.8,37.7z M13,45.7l-4.2,3l0.2,0.2L9,49L9,49l0.1,0.2l0.1-0.1
			c0,0,2.6-1.8,3-2.1c-0.1,0.5-1,4.4-1,4.4L11.2,52l0,0.1l0.2,0.3l4.4-3.1l-0.2-0.2L15.5,49l-0.1-0.1l-0.1-0.2l-0.1,0.1
			c0,0-2.4,1.7-2.9,2c0.1-0.5,1-4.9,1-4.9l-0.3-0.4L13,45.7z M18.4,52.4l-3.2,4.1l0.2,0.2l0.2,0.1l0.2,0.1l0.2,0.2l0.1-0.1l3.2-4.1
			L19,52.7l-0.2-0.1l-0.1-0.1l-0.2-0.2L18.4,52.4z M22,55c0,0.3,0,1,0,1.9c0,1.1,0,2.6,0.1,3.7l0,0.1l0.2,0l0.1,0c0,0,0.1,0,0.1,0
			l0.2,0.1l0.1-0.1c0.6-0.7,3.5-3.5,3.9-3.8l0.2-0.2l-0.4-0.1l-0.1,0l-0.2-0.1l-0.2-0.1l-0.1,0.1l-0.1,0.1c0,0-0.9,1-0.9,1
			c0,0-1.5,1.6-1.5,1.6l-0.5,0.4c0,0,0,0-0.1,0.1c0-0.4,0-2.2,0-2.2l0-1.4l0-0.8v-0.1l-0.1,0l-0.1,0L22.5,55l-0.2-0.1l-0.3-0.2
			L22,55z M29.7,57.6l-0.4,5.2l3,0.2l0-0.2l0-0.1l0-0.1l0.1-0.3l-0.2,0c-0.2,0-0.4,0-0.7,0l-0.3,0c0,0-0.6,0-0.9-0.1
			c0-0.2,0.1-1.6,0.1-1.9c0.2,0,1,0.1,1,0.1l0.4,0l0.5,0.1l0-0.2l0-0.1v-0.1l0-0.1l0.1-0.2h-0.2l-0.3,0l-0.4,0c0,0-0.8-0.1-1-0.1
			c0-0.2,0.1-1.3,0.1-1.6c0.2,0,0.4,0,0.4,0l0,0l0.7,0.1c0.3,0,0.5,0.1,0.6,0.1l0.2,0.1l0-0.3l0-0.1l0-0.1l0-0.3l-0.2,0l-2.8-0.2
			L29.7,57.6z M38.1,57.1l-1.7,0.4l1.2,5.2l0.3-0.1l0.2-0.1l0.2,0l0.3,0l0-0.2c0,0-0.4-2-0.5-2.3c0,0,0,0,0.1,0
			c0.1,0.1,0.7,0.5,0.7,0.5c0,0,1.1,0.9,1.1,0.9c0,0,0.6,0.5,0.6,0.5l0.1,0.1l0.1,0l0.1,0l0.3-0.1l0.2,0l0.5-0.1l-0.2-0.2l-0.2-0.2
			c0,0-0.4-0.3-0.4-0.3s-1.3-1-1.7-1.4c0.7-0.4,1.1-0.9,1.1-1.5c0-0.1,0-0.2,0-0.3C39.9,57.1,39.2,56.9,38.1,57.1z M38.3,57.6
			c0.5,0,0.7,0.2,0.8,0.6c0,0.1,0,0.1,0,0.2c0,0.4-0.2,0.7-0.6,0.9c-0.2,0.1-0.6,0.2-0.7,0.2c-0.1-0.2-0.3-1.5-0.4-1.7
			C37.7,57.8,38.1,57.7,38.3,57.6z M44.6,54.3L44.6,54.3c-0.5,0.3-0.8,0.7-0.9,1.1c-0.1,0.4,0,0.8,0.2,1.1c0.5,0.9,1.2,0.7,1.9,0.7
			c0.6-0.1,1.1-0.1,1.3,0.3c0.1,0.2,0.2,0.5,0.1,0.7c-0.1,0.2-0.2,0.4-0.4,0.5c-0.4,0.2-0.8,0.2-1.3-0.1l-0.1,0l-0.3,0.1l0,0.1
			c0.1,0.2,0.2,0.4,0.2,0.6l0,0.1l0.1,0c0.4,0.1,1.1-0.1,1.4-0.2c0.5-0.3,0.9-0.7,1-1.2c0.1-0.4,0.1-0.9-0.2-1.4
			c-0.4-0.8-1.2-0.7-1.9-0.6c-0.6,0.1-1.1,0.2-1.3-0.3c-0.1-0.2-0.1-0.3-0.1-0.5c0.1-0.2,0.2-0.4,0.4-0.5c0.3-0.2,0.7-0.1,1,0.1
			l0.1,0.1l0.2-0.1L46,54.7c0-0.2-0.1-0.3-0.1-0.5l0-0.1l-0.1,0C45.4,54,44.9,54.1,44.6,54.3z M49.2,50.8l-0.1,0.1L49,51l-0.2,0.1
			l-0.2,0.2l0.1,0.1l3.7,3.7l0.2-0.2l0.1-0.2l0.1-0.1l0.2-0.2l-0.1-0.1l-3.7-3.7L49.2,50.8z M53.6,44.4l-2,3.5l0.2,0.1l0.1,0
			l0.1,0.1l0.2,0.2l0.1-0.2c0.1-0.3,0.3-0.7,0.6-1.3c0.2,0.1,4.1,2.3,4.1,2.3l0.1-0.2l0.1-0.2l0.1-0.2l0.2-0.2l-0.1-0.1
			c0,0-3.7-2.1-4-2.3c0.2-0.4,0.5-0.8,0.7-1.2l0.1-0.2l-0.2-0.1L54,44.5l-0.1-0.1l-0.2-0.2L53.6,44.4z M55.3,37.4l0,0.1l0,0.2l0,0.2
			l0,0.2l0.1,0.1l0.2,0.2c0.4,0.4,1.4,1.1,1.8,1.5c-0.6,0.2-1.9,0.7-2.5,0.8l-0.1,0l0,0.3l0,0.2l-0.1,0.3l-0.1,0.4l0.3-0.1
			c0,0,3.1-1.2,3.2-1.2c0.1,0,2.2,0.4,2.2,0.4l0-0.3l0-0.2l0-0.2l0.1-0.3l-0.2,0c0,0-2.1-0.4-2.2-0.4c-0.2-0.1-0.4-0.3-0.6-0.5
			l-1.1-1l-0.8-0.9L55.3,37.4z M8.5,22.9L8.5,22.9L8.5,23l-0.1,0.1l-0.1,0.2l0.2,0.1c0,0,2.8,1.1,3.2,1.3C11.2,24.9,7,26.5,7,26.5
			l-0.2,0.5l5,2.1l0.1-0.2l0-0.1l0.1-0.1l0.1-0.2l-0.2-0.1c0,0-2.9-1.2-3.4-1.4c0.5-0.2,4.2-1.5,4.2-1.5l0.6-0.2l0-0.1l0.1-0.3
			l-5-2.1L8.5,22.9z M13.4,16l-0.2,0.2l2.3,5.6l0.2-0.3l0.1-0.1l0.1-0.1l0.2-0.2L16.1,21c-0.3-0.6-0.6-1.2-0.9-1.7c0,0,0,0,0-0.1
			c0.1-0.1,1-1.1,1.2-1.2c0.6,0.2,1.2,0.5,1.9,0.8l0.1,0l0.1-0.2l0.2-0.2l0.2-0.2l0.3-0.3L18.9,18L13.4,16L13.4,16z M14.3,17.3
			c0.4,0.1,1.1,0.4,1.4,0.5c-0.2,0.2-0.6,0.7-0.8,0.9C14.8,18.4,14.5,17.6,14.3,17.3z M22,10.1L18.5,12l0.1,0.2l0.1,0.1l0,0.1
			l0.1,0.2l0.2-0.1c0.3-0.2,0.7-0.4,1.3-0.7c0.1,0.2,2.2,4.2,2.2,4.2l0.2-0.1l0.2-0.1l0.2-0.1l0.3-0.1l-0.1-0.1c0,0-2-3.8-2.1-4
			c0.4-0.2,0.8-0.4,1.3-0.6l0.2-0.1l-0.1-0.2l-0.1-0.1l0-0.1l-0.1-0.2L22,10.1z M27.6,8.5l-0.1,0l-0.2,0.1l-0.2,0l-0.3,0l0,0.2
			l1.1,5.1l0.2-0.1l0.2-0.1l0.2,0l0.3,0l0-0.2l-1.1-5.1L27.6,8.5z M34.2,8.4c-0.6,0.4-1,1-1.1,1.8l0,0c-0.1,0.8,0,1.5,0.4,2.1
			c0.4,0.6,1.1,1,1.9,1.1c0.9,0.1,1.7,0,2.3-0.5c0.6-0.4,1-1.1,1.1-1.9c0.1-0.7,0-1.4-0.4-1.9c-0.4-0.6-1.2-1-2.1-1.2
			C35.6,7.8,34.8,7.9,34.2,8.4z M35.6,12.9c-1.1-0.2-1.7-1.1-1.5-2.4c0.1-0.8,0.4-1.4,0.9-1.7c0.4-0.3,0.9-0.4,1.4-0.3
			c0.6,0.1,1,0.4,1.3,0.9c0.3,0.5,0.3,1,0.2,1.6c-0.1,0.5-0.4,1.2-0.9,1.6C36.6,12.8,36.1,12.9,35.6,12.9z M44.6,10.6l-2.6,4.5
			l0.2,0.1l0.1,0.1l0.1,0.1l0.2,0.2l0.1-0.2c0,0,1.6-2.8,1.8-3.2c0.1,0.5,1,4.4,1,4.4l0.1,0.6l0.1,0l0.3,0.2l2.6-4.7l-0.2-0.1
			l-0.1,0l-0.1-0.1l-0.2-0.1L48,12.5c0,0-1.5,2.6-1.7,3.1c-0.1-0.5-1.1-4.8-1.1-4.8l-0.4-0.2L44.6,10.6z M54.6,18.2l-5.7,1.5
			l0.2,0.2l0.1,0.1l0.1,0.1l0.1,0.2l0.1,0c0.6-0.2,1.2-0.4,1.8-0.6c0,0,0,0,0.1,0c0.1,0.1,0.9,1.2,1,1.3c-0.3,0.5-0.6,1.1-1,1.8
			l-0.1,0.1l0.2,0.2l0.2,0.2l0.1,0.2l0.2,0.3l0.1-0.2l2.7-5L54.6,18.2L54.6,18.2z M53.5,19.1c-0.2,0.4-0.6,1.1-0.7,1.3
			c-0.2-0.2-0.6-0.7-0.7-0.9C52.3,19.4,53.1,19.2,53.5,19.1z M58.6,25.2l-4.9,1.6l0.9,2.9l0.2-0.1l0.1-0.1l0.1,0l0.3-0.1l-0.1-0.2
			l0,0l-0.3-0.6l-0.1-0.3c0,0-0.2-0.6-0.3-0.8c0.3-0.1,4.5-1.4,4.5-1.4l-0.1-0.3l-0.1-0.2l-0.1-0.2l-0.1-0.3L58.6,25.2z M57.1,33.3
			c0,0.5,0.4,1,1,1c0.5,0,1-0.4,1-1c0-0.5-0.4-1-1-1C57.6,32.4,57.1,32.8,57.1,33.3z M7.2,32.8c0,0.5,0.4,1,1,1s1-0.4,1-1
			c0-0.5-0.4-1-1-1S7.2,32.3,7.2,32.8z"/>
		<g>
			<rect x="20.4" y="46.1" class="st2" width="25.6" height="1.4"/>
			<g>
				<polygon class="st2" points="25.7,44.6 26.1,29.7 24.8,29.7 25.2,44.6 				"/>
			</g>
			<g>
				<polygon class="st2" points="41.1,44.6 41.5,29.8 40.2,29.8 40.6,44.6 				"/>
			</g>
			<g>
				<polygon class="st2" points="44.1,44.6 44.5,29.8 43.2,29.8 43.6,44.6 				"/>
			</g>
			<rect x="20.4" y="27.3" class="st2" width="25.6" height="0.9"/>
			<g>
				<polygon class="st2" points="22.7,44.6 23.1,29.7 21.8,29.7 22.2,44.6 				"/>
			</g>
			<g>
				<path class="st2" d="M44.7,25.8c0,0.1-0.1,0.2-0.4,0.1c-0.1-0.1-0.4-0.4-0.5-0.5c-2.3-2.8-6.3-4.3-10.6-4.3
					c-4.3,0-8.9,2-10.6,4.4c0,0.1-0.1,0.1-0.1,0.1c-0.2,0.3-0.7,0.5-0.7,0.3c1.3-3.3,6.1-6,11.5-6C38.6,19.8,43.4,22.4,44.7,25.8z"
					/>
				<path class="st2" d="M27.9,25.6c1.2-1,3.2-1.8,5.4-1.8c2.2,0,4.2,0.8,5.3,1.8c0,0,0.1,0.1-0.2,0.1c-0.3,0-0.8-0.1-0.9-0.2
					c-1.2-0.4-2.9-0.7-4.3-0.7c-1.2,0-2.6,0.3-4,0.7C28.9,25.7,27.6,25.9,27.9,25.6z"/>
				<path class="st2" d="M41,25.4c0.1,0.1,0.3,0.2,0.4,0.3c0.3,0.1,0.6,0.1,0.4-0.1c-1.3-2.1-4.7-3.9-8.6-3.9
					c-3.9,0-7.4,1.7-8.7,3.9c-0.1,0.1,0.1,0.1,0.2,0.1c0.2,0,0.5-0.2,0.6-0.4c1.7-1.4,5-2.5,7.9-2.5C36.2,23,39.4,24.1,41,25.4z"/>
			</g>
			<polygon class="st2" points="37.3,29.8 38.7,29.8 38.2,44.6 37.8,44.6 37.4,30.9 37.4,30.9 28.9,30.9 28.9,30.9 28.5,44.6
				28,44.6 27.6,29.8 28.9,29.8 28.9,29.8 37.3,29.8 			"/>
		</g>
	</g>
	<g>
		<path class="st0" d="M60,63.4c-0.4,0.3-0.8,0.5-1.3,0.5c-0.5,0-1-0.2-1.3-0.5c-0.4-0.4-0.5-0.8-0.5-1.3c0-0.5,0.2-1,0.6-1.3
			c0.4-0.3,0.8-0.5,1.3-0.5c0.5,0,0.9,0.2,1.3,0.5c0.4,0.4,0.5,0.8,0.5,1.3C60.5,62.6,60.4,63.1,60,63.4z M57.6,61
			c-0.3,0.3-0.4,0.7-0.4,1.1c0,0.4,0.1,0.8,0.4,1.1c0.3,0.3,0.7,0.4,1.1,0.4c0.4,0,0.8-0.2,1.1-0.5c0.3-0.3,0.4-0.7,0.4-1.1
			c0-0.4-0.1-0.8-0.4-1.1c-0.3-0.3-0.7-0.5-1.1-0.5C58.3,60.6,57.9,60.7,57.6,61z M57.9,63.1v-2.1c0.1,0,0.3,0,0.6,0
			c0.3,0,0.4,0,0.4,0c0.2,0,0.3,0,0.4,0.1c0.2,0.1,0.3,0.3,0.3,0.5c0,0.2,0,0.3-0.1,0.4c-0.1,0.1-0.2,0.1-0.4,0.1
			c0.1,0,0.2,0.1,0.3,0.1c0.1,0.1,0.2,0.3,0.2,0.5v0.2c0,0,0,0,0,0.1c0,0,0,0,0,0.1l0,0.1H59c0-0.1,0-0.2,0-0.3c0-0.1,0-0.2,0-0.3
			c0-0.1-0.1-0.1-0.1-0.2c0,0-0.1,0-0.2,0l-0.1,0h-0.1v0.7H57.9z M58.9,61.5c-0.1,0-0.2,0-0.3,0h-0.1V62h0.2c0.1,0,0.2,0,0.3-0.1
			c0.1-0.1,0.1-0.1,0.1-0.2C59,61.6,59,61.5,58.9,61.5z"/>
	</g>
</g>
</svg>
