<svg id="NU_Logo_white" xmlns="http://www.w3.org/2000/svg" width="236.795" height="66" viewBox="0 0 236.795 66">
  <path id="Path_906" data-name="Path 906" d="M85.978,13.128c-.828,0-1.419,0-1.656.71s-.355,2.247-.355,7.806V30.4s-4.731-5.8-7.215-8.516c-2.011-2.247-5.086-6.032-5.086-6.032v5.559c0,4.849,0,6.151.237,6.86.118.355.473.828,1.774.828v.828H68.237V29.1c.828,0,1.3-.118,1.656-.71s.355-1.656.355-7.1V14.311S69.892,13.246,68,13.246V12.3h4.731l5.441,6.505,4.613,5.323V19.4a27.956,27.956,0,0,0-.237-5.441c-.237-.591-.828-.828-1.774-.828V12.3h5.441l-.237.828Z" transform="translate(12.43 2.248)" fill="#fff"/>
  <path id="Path_907" data-name="Path 907" d="M95.016,16.6c-.118.355-1.774,4.14-2.247,5.323h4.495C96.672,20.508,95.726,18.142,95.016,16.6Zm6.032,13.484H97.855V29.26c1.3,0,1.774-.355,1.774-.946a12.342,12.342,0,0,0-.946-2.957c-.237-.71-.946-2.366-.946-2.366H92.3s-.828,1.774-1.183,2.839a7.135,7.135,0,0,0-.71,2.247c0,.71.591,1.183,2.366,1.183v.828H86.5V29.26a2.164,2.164,0,0,0,2.247-1.419c.473-.828,1.892-4.14,3.194-6.978C93.6,17.2,95.489,12.7,96.081,11.4c.473,1.065,3.075,7.333,4.258,10.172.71,1.774,2.247,5.2,2.839,6.269s1.065,1.419,1.892,1.419v.828Z" transform="translate(15.812 2.084)" fill="#fff"/>
  <path id="Path_908" data-name="Path 908" d="M117.994,16.067c0-1.656-.473-2.484-2.484-2.484h-2.72V23.755a19.121,19.121,0,0,0,.237,4.495,1.545,1.545,0,0,0,1.656.946v.828H107.94V29.2c.946,0,1.419-.118,1.656-.828a18.139,18.139,0,0,0,.237-4.376V13.819h-2.6c-1.774,0-2.484.71-2.484,2.484H103.8V12.4c1.419,0,2.366.118,3.548.118h4.258c2.484,0,4.849,0,7.333-.118v3.9Z" transform="translate(18.974 2.267)" fill="#fff"/>
  <path id="Path_909" data-name="Path 909" d="M124.594,29.942H121.4v-.828c.946,0,1.419-.118,1.656-.828s.237-2.129.237-7.806c0-4.376,0-6.032-.237-6.624s-.71-.828-1.656-.828V12.2h6.742v.946c-.828,0-1.419.118-1.656.71s-.237,1.774-.237,6.387c0,5.323,0,7.57.237,8.161s.591.828,1.656.828v.828a25.038,25.038,0,0,0-3.548-.118Z" transform="translate(22.191 2.23)" fill="#fff"/>
  <path id="Path_910" data-name="Path 910" d="M141.008,13.4c-3.785,0-5.559,2.957-5.559,7.333,0,4.731,2.129,8.28,5.8,8.28s5.559-3.194,5.559-7.925C146.685,17.9,145.148,13.4,141.008,13.4Zm-.118,16.8c-6.624,0-8.989-4.968-8.989-8.989a8.985,8.985,0,0,1,8.871-9.108h.473c6.032,0,8.871,4.376,8.871,8.989a8.964,8.964,0,0,1-8.634,9.226,1.066,1.066,0,0,0-.591-.118Z" transform="translate(24.11 2.212)" fill="#fff"/>
  <path id="Path_911" data-name="Path 911" d="M169.9,13.128c-.828,0-1.419,0-1.656.71s-.355,2.247-.355,7.806V30.4s-4.731-5.8-7.333-8.516c-2.011-2.247-5.086-6.032-5.086-6.032v5.559c0,4.849,0,6.151.237,6.86.118.355.473.828,1.774.828v.828h-5.441V29.1c.828,0,1.3-.118,1.656-.71s.355-1.656.355-7.1V14.311s-.355-1.065-2.247-1.065V12.3h4.731l5.441,6.505,4.613,5.323V19.4a27.955,27.955,0,0,0-.237-5.441c-.237-.591-.828-.828-1.774-.828V12.3h5.441l-.118.828Z" transform="translate(27.748 2.248)" fill="#fff"/>
  <g id="Group_523" data-name="Group 523" transform="translate(200.838 13.484)">
    <g id="Group_522" data-name="Group 522">
      <path id="Path_912" data-name="Path 912" d="M178.316,16.6c-.118.355-1.774,4.14-2.247,5.323h4.613c-.591-1.419-1.538-3.785-2.366-5.323Zm6.032,13.484h-3.194V29.26c1.3,0,1.774-.355,1.774-.946a12.337,12.337,0,0,0-.946-2.957c-.237-.71-.946-2.366-.946-2.366H175.6s-.828,1.774-1.183,2.839a7.133,7.133,0,0,0-.71,2.247c0,.71.591,1.183,2.247,1.183v.828H169.8V29.26a2.164,2.164,0,0,0,2.247-1.419c.473-.828,1.893-4.14,3.194-6.978,1.656-3.667,3.548-8.161,4.14-9.462l4.258,10.172c.71,1.774,2.129,5.2,2.72,6.269s1.064,1.419,1.893,1.419v.828Z" transform="translate(-169.8 -11.4)" fill="#fff"/>
      <path id="Path_913" data-name="Path 913" d="M193.348,29.924H189.8V29.1c.946,0,1.419-.237,1.656-.946s.237-2.129.237-7.688c0-4.376,0-6.032-.237-6.624s-.71-.71-1.656-.71V12.3h6.742v.828c-.828,0-1.419.118-1.656.71a38.469,38.469,0,0,0-.237,6.387c0,7.688,0,7.688.473,8.161s.946.355,2.484.355a3.573,3.573,0,0,0,2.957-1.065,3.486,3.486,0,0,0,.591-1.538h.946v3.785s-6.978-.118-8.753,0Z" transform="translate(-166.144 -11.235)" fill="#fff"/>
    </g>
  </g>
  <path id="Path_914" data-name="Path 914" d="M94.173,38.291c-.591,0-1.065,0-1.183.473a23.27,23.27,0,0,0-.118,4.968c0,3.194-.591,5.677-4.613,5.677C86.13,49.41,84,48.582,84,45.388V40.42a7.81,7.81,0,0,0-.118-1.656c-.118-.473-.473-.473-1.183-.473v-.473h3.9v.473c-.591,0-.946,0-1.064.473a27.06,27.06,0,0,0-.118,4.376c0,3.667,0,5.559,3.194,5.559,2.366,0,3.43-1.183,3.43-4.731V41.012a7.662,7.662,0,0,0-.237-2.366c-.237-.355-.473-.473-1.419-.473V37.7h3.785v.591Z" transform="translate(15.117 6.891)" fill="#fff"/>
  <path id="Path_915" data-name="Path 915" d="M103.525,37.837h3.43v.473c-.71,0-.946.118-1.065.473a39.2,39.2,0,0,0-.237,5.2v5.8s-3.548-4.613-4.968-6.505c-1.183-1.419-2.957-3.9-2.957-3.9v4.14a21.172,21.172,0,0,0,.237,4.731c.118.355.473.473,1.183.473v.473h-3.43v-.473c.591,0,.946,0,1.065-.473a40.083,40.083,0,0,0,.237-5.323v-4.14s-.237-.71-1.419-.71V37.6h2.839l3.667,4.849,2.957,3.785V43.4c0-3.548,0-4.376-.237-4.731s-.473-.473-1.183-.473v-.355Z" transform="translate(17.475 6.873)" fill="#fff"/>
  <path id="Path_916" data-name="Path 916" d="M112.822,49.273h-3.9V48.8c.473,0,.946,0,1.064-.473s.118-1.183.118-5.323a25.621,25.621,0,0,0-.118-4.258c-.118-.473-.591-.473-1.183-.473V37.8h3.9v.473c-.591,0-.946,0-1.065.473A17.119,17.119,0,0,0,111.52,43a39.993,39.993,0,0,0,.118,5.323c.236.473.591.473,1.183.473Z" transform="translate(19.888 6.91)" fill="#fff"/>
  <path id="Path_917" data-name="Path 917" d="M124.981,39.338c-.237.591-1.183,2.72-1.892,4.495-.946,2.366-2.129,5.086-2.366,5.8-.237-.828-1.774-4.613-2.484-6.387a28.243,28.243,0,0,0-1.774-4.376,1.242,1.242,0,0,0-1.065-.591V37.8h4.021v.473c-.71,0-1.183.118-1.183.473,0,.473.237.946,1.3,3.9.591,1.774,1.656,4.14,1.656,4.14s1.183-2.72,1.774-4.14a18.973,18.973,0,0,0,1.183-3.667q0-.71-1.419-.71V37.8h3.785v.473c-.71,0-1.065.237-1.538,1.064Z" transform="translate(21.094 6.91)" fill="#fff"/>
  <path id="Path_918" data-name="Path 918" d="M135.388,46.944V49.31c-.946,0-4.14-.118-5.323-.118h-2.247v-.473c.591,0,.828-.118,1.065-.473s.118-1.419.118-5.323a25.621,25.621,0,0,0-.118-4.258c-.118-.473-.473-.473-1.183-.473v-.473h2.011c.591,0,4.376-.118,5.086-.118v2.129h-.591c0-1.3-.237-1.419-2.366-1.419h-1.656V42.8h1.3a5.758,5.758,0,0,0,1.419-.118,1.807,1.807,0,0,0,.473-1.183h.591v3.075h-.591a1.274,1.274,0,0,0-.237-.946c-.237-.237-.473-.237-1.538-.237h-1.419v2.839a4.6,4.6,0,0,0,.236,1.774c.237.355.828.355,2.011.355a3.746,3.746,0,0,0,1.893-.473,2,2,0,0,0,.355-1.183Z" transform="translate(23.343 6.873)" fill="#fff"/>
  <path id="Path_919" data-name="Path 919" d="M140.557,43.5c.355,0,.71.118,1.064.118a2.386,2.386,0,0,0,2.6-2.129v-.473a2.165,2.165,0,0,0-1.892-2.484h-1.774V43.5Zm4.849,5.8s-.591-.828-1.774-2.6c-.473-.71-1.419-2.129-1.774-2.6h-1.419s0,3.785.118,4.14.591.473,1.183.473v.473h-4.021V48.7c.591,0,.946,0,1.065-.473A26.707,26.707,0,0,0,138.9,42.9a25.631,25.631,0,0,0-.118-4.258c-.118-.473-.473-.473-1.183-.473V37.7h4.258c2.011,0,3.785.828,3.785,2.72a3.762,3.762,0,0,1-2.366,3.194c.473.828.946,1.538,1.419,2.247.828.946,1.419,2.011,1.892,2.366a2.1,2.1,0,0,0,1.183.473v.473Z" transform="translate(25.152 6.891)" fill="#fff"/>
  <path id="Path_920" data-name="Path 920" d="M154.832,40.066a1.723,1.723,0,0,0-1.538-1.892h-.473c-1.419,0-2.129.828-2.129,1.774,0,1.419,1.064,2.011,2.366,2.839,1.538,1.065,2.72,1.892,2.72,3.312s-1.183,3.312-4.022,3.312a23.682,23.682,0,0,1-2.839-.473v-.591c0-.591-.118-2.011-.118-2.011h.473a2.227,2.227,0,0,0,2.011,2.366h.473c2.129,0,2.484-1.183,2.484-2.011s-.71-1.419-2.6-2.72c-1.538-1.065-2.484-1.774-2.484-3.43,0-1.183.946-2.839,3.548-2.839,1.064,0,1.892.118,2.366.118V40.3Z" transform="translate(27.2 6.891)" fill="#fff"/>
  <path id="Path_921" data-name="Path 921" d="M162.422,49.273h-3.9V48.8c.473,0,.946,0,1.065-.473s.118-1.183.118-5.323a25.618,25.618,0,0,0-.118-4.258c-.118-.473-.591-.473-1.183-.473V37.8h3.9v.473c-.591,0-.946,0-1.065.473A17.115,17.115,0,0,0,161.121,43a39.991,39.991,0,0,0,.118,5.323c.237.473.591.473,1.183.473v.473Z" transform="translate(28.954 6.91)" fill="#fff"/>
  <path id="Path_922" data-name="Path 922" d="M173.953,40.184c0-1.3-.355-1.538-1.538-1.538h-1.893v4.376a39.986,39.986,0,0,0,.118,5.323c.118.355.473.473,1.183.473v.473h-3.9v-.473c.591,0,.946,0,1.064-.473a40,40,0,0,0,.118-5.323V38.528h-1.774c-1.419,0-1.538.355-1.538,1.538H165.2V37.7c1.064,0,2.011.118,4.376.118h4.968v2.366Z" transform="translate(30.197 6.891)" fill="#fff"/>
  <path id="Path_923" data-name="Path 923" d="M186.109,38.255a1.519,1.519,0,0,0-1.183.473,11.248,11.248,0,0,0-1.774,2.366,24.927,24.927,0,0,0-1.656,2.6,31.614,31.614,0,0,0,.118,4.731c.237.591.591.473,1.183.473v.473h-3.9V48.9c.591,0,.946,0,1.065-.473.237-.71.118-1.183.118-4.376-.237-.473-.591-.946-1.656-2.839a15.069,15.069,0,0,0-1.538-2.247,1.456,1.456,0,0,0-1.183-.591V37.9h3.9v.473c-.591,0-.946,0-.946.355a8.951,8.951,0,0,0,1.064,2.129l1.3,2.247c.71-1.065.946-1.3,1.419-2.129a6.574,6.574,0,0,0,1.065-2.011c0-.355-.355-.591-.946-.591V37.9h3.548v.355Z" transform="translate(32.117 6.928)" fill="#fff"/>
  <path id="Path_924" data-name="Path 924" d="M32.945.2A32.7,32.7,0,1,1,.3,32.963,32.635,32.635,0,0,1,32.945.2Z" transform="translate(0.055 0.037)" fill="#fff"/>
  <path id="Path_925" data-name="Path 925" d="M33,.591A32.409,32.409,0,1,0,65.409,33,32.458,32.458,0,0,0,33,.591ZM33,66A33,33,0,1,1,66,33,33.089,33.089,0,0,1,33,66Z" fill="#73808a"/>
  <path id="Path_926" data-name="Path 926" d="M6.658,30.314a1.018,1.018,0,0,0,.946.946.946.946,0,1,0,0-1.892h0a1.018,1.018,0,0,0-.946.946Zm49.559.591a.946.946,0,1,0,.946-.946,1.018,1.018,0,0,0-.946.946Zm1.538-8.043L52.905,24.4l.946,2.839.237-.118h.473L54.443,27h0l-.237-.591-.237-.473-.237-.828,4.495-1.419-.118-.237v-.591Zm-5.086-6.151c-.237.355-.591,1.065-.71,1.3l-.71-.946,1.419-.355Zm1.065-.828L48.056,17.3l.237.237.118.118.118.118.118.237h.118a10.409,10.409,0,0,1,1.774-.591h.118l1.065,1.3A10.01,10.01,0,0,1,50.658,20.5l-.118.118.118.118.118.237.118.118.237.355.118-.237,2.72-4.968L53.733,16v-.118ZM43.8,8.314l-2.6,4.495.237.118h.237l.237.118.118-.118L43.8,9.733l.946,4.376.118.591h.118l.355.237,2.6-4.613-.237-.118h-.237l-.237-.118v.118l-1.774,3.075c-.118-.473-1.183-4.849-1.183-4.849L43.8,8.2v.118Zm-8.989,2.247a1.863,1.863,0,0,1-1.538-2.129V8.2a2.175,2.175,0,0,1,.946-1.656,1.89,1.89,0,0,1,2.6.473v.118a1.769,1.769,0,0,1,.118,1.538,2.16,2.16,0,0,1-.946,1.538c-.118.355-.591.473-1.183.355Zm-1.3-4.495a2.8,2.8,0,0,0-1.065,1.774h0a2.473,2.473,0,0,0,.473,2.011,3.251,3.251,0,0,0,1.892,1.183,2.916,2.916,0,0,0,2.247-.473A2.409,2.409,0,0,0,38.12,8.669a2.518,2.518,0,0,0-.355-1.892,3,3,0,0,0-2.011-1.183,3.525,3.525,0,0,0-2.247.473ZM27,6.185h-.828V6.3l1.183,5.086.237-.118h.591v-.118L27,6.067h-.118ZM21.443,7.841,17.895,9.615l.118.237.118.118v.118l.118.237v-.118a3.135,3.135,0,0,1,1.3-.71c.118.237,2.129,4.14,2.129,4.14l.237-.118.237-.118.118-.118.237-.118-.118-.118L20.378,9.024a13.876,13.876,0,0,1,1.3-.591l.118-.118-.118-.237-.118-.118h0l-.118-.118Zm-7.688,7.1,1.419.473-.828.828Zm-.946-1.183-.118.237,2.247,5.559.237-.237.118-.118.118-.118.118-.118v-.118a11.938,11.938,0,0,1-.828-1.774v-.118l1.183-1.183c.591.237,1.183.473,1.892.71h.118l.118-.118.118-.237L18.249,16l.237-.237-.237-.118-5.323-2.011-.118.118ZM7.959,20.5h0v.355l-.118.118.118.118,3.194,1.3L6.54,24.045l-.237.473,4.968,2.011v-.473l.118-.237h-.118l-3.43-1.183,4.14-1.538.591-.237v-.118l.118-.355L7.959,20.5ZM54.443,35.045v.591h.118l.237.237c.473.355,1.419,1.065,1.774,1.419a20.383,20.383,0,0,1-2.484.828H53.97v.71l-.118.355.237-.118,3.194-1.183,2.247.473v-.591l.118-.237h-.118l-2.247-.355a2.579,2.579,0,0,1-.591-.473l-1.183-1.065-.828-.828-.237.237Zm-1.656,6.86-1.892,3.43.237.118h.118l.118.118.237.118h.118c.237-.473.355-.828.591-1.3l4.14,2.247.118-.237.118-.237.118-.118.118-.237-.237-.118-3.9-2.247c.237-.355.473-.828.71-1.183l.118-.118-.237-.118H53.26l-.118-.118-.237-.118-.118.118Zm-4.376,6.387h0l-.237.237-.118.118-.237.237.118.118L51.6,52.669l.118-.237.118-.118.118-.118.237-.237-.118-.118-3.667-3.548ZM43.8,51.723h0a1.679,1.679,0,0,0-.946,1.065,2.045,2.045,0,0,0,.118,1.183c.473.828,1.183.71,1.892.591s1.065-.118,1.3.355a1.5,1.5,0,0,1,.118.71c0,.237-.237.355-.355.473a1.076,1.076,0,0,1-1.3-.118h-.118l-.237.118v.237c.118.237.118.355.237.591v.118h.118a2.036,2.036,0,0,0,1.419-.237,1.879,1.879,0,0,0,.946-1.183,1.642,1.642,0,0,0-.237-1.3c-.473-.828-1.183-.71-1.892-.591s-1.065.118-1.3-.355a.886.886,0,0,1-.118-.591,1.633,1.633,0,0,1,.355-.473.716.716,0,0,1,.946.118h.118l.237-.118v-.237c0-.118-.118-.355-.118-.473h-.118a1.747,1.747,0,0,0-1.065.118Zm-6.151,3.43c.355-.118.71.118.828.591h0v.237a.889.889,0,0,1-.591.828c-.237.118-.473.118-.71.237,0-.237-.355-1.419-.355-1.656.118-.237.473-.237.828-.237Zm-.355-.591-1.656.355,1.183,5.2L37.056,60h.591v-.118l-.473-2.247h.237l.71.473,1.065.946.591.473h.118l.237-.118h.237l.473-.118-.237-.237-.118-.118-.355-.237-1.774-1.419a1.657,1.657,0,0,0,1.065-1.419v-.237c-.237-.828-.828-1.065-2.011-.828Zm-8.28.591-.355,5.086,2.957.237v-.71H29.723c0-.237.118-1.656.118-1.892l.946.118h.355l.473.118v-.828h-.828l-.946-.118c0-.237.118-1.3.118-1.538h.355l.71.118a5.124,5.124,0,0,1,.591.118h.237v-.71h-.118l-2.72-.237v.237Zm-7.688-2.6v1.892c0,1.183,0,2.6.118,3.667v.118h.237l.118.118.118-.118c.591-.71,3.548-3.548,3.9-3.785l.237-.237-.473-.237h-.237l-.118-.118-.118.118h-.118l-.946.946-1.419,1.538-.473.473h0V52.432h-.237l-.237-.118-.237-.118-.355-.118v.237Zm-3.548-2.72L14.7,53.97l.237.118.118.118.118.118.237.237.118-.118,3.194-4.14-.237-.237-.118-.118-.118-.118-.237-.237-.237.237Zm-5.323-6.624L8.2,46.163l.118.118.118.118v.118l.118.237.118-.118,2.957-2.129-.946,4.376-.118.591h0l.237.237,4.376-3.075-.237-.118h0V46.4l-.118-.237-.118.118-2.839,2.011c.118-.473,1.065-4.849,1.065-4.849l-.237-.473-.237.237Zm-2.247-7.925-2.839.591a3.372,3.372,0,0,0-1.656.946,3.043,3.043,0,0,0-.118,1.774,2.629,2.629,0,0,0,.946,1.538,2.364,2.364,0,0,0,1.774.237l3.075-.591-.118-.237v-.473h-.118l-2.6.591a2.6,2.6,0,0,1-1.656-.118,2.122,2.122,0,0,1-.591-.828c-.237-1.065.118-1.538,1.419-1.774l2.957-.591-.118-.237V35.4h-.118Zm2.6-2.72A19.753,19.753,0,1,0,32.561,12.809h0A19.712,19.712,0,0,0,12.809,32.561ZM32.561,2.4A30.161,30.161,0,1,1,2.4,32.561,30.136,30.136,0,0,1,32.561,2.4Z" transform="translate(0.439 0.439)" fill="#1a3560"/>
  <path id="Path_927" data-name="Path 927" d="M17.1,37.2H42.648v1.3H17.1Z" transform="translate(3.126 6.8)" fill="#73808a"/>
  <path id="Path_928" data-name="Path 928" d="M21.628,38.167,22.1,23.5H20.8l.473,14.667Z" transform="translate(3.802 4.296)" fill="#73808a"/>
  <path id="Path_929" data-name="Path 929" d="M34.646,38.285,35.119,23.5H33.7l.473,14.785Z" transform="translate(6.16 4.296)" fill="#73808a"/>
  <path id="Path_930" data-name="Path 930" d="M37.128,38.285,37.6,23.5H36.3l.355,14.785Z" transform="translate(6.635 4.296)" fill="#73808a"/>
  <path id="Path_931" data-name="Path 931" d="M17.1,21.4H42.648v.946H17.1Z" transform="translate(3.126 3.912)" fill="#73808a"/>
  <path id="Path_932" data-name="Path 932" d="M19.128,38.167,19.6,23.5H18.3l.355,14.667Z" transform="translate(3.345 4.296)" fill="#73808a"/>
  <path id="Path_933" data-name="Path 933" d="M41.01,21.014c0,.118-.118.237-.355,0-.237-.118-.355-.355-.473-.473a13.111,13.111,0,0,0-10.527-4.258c-4.258,0-8.753,1.892-10.527,4.376a.116.116,0,0,1-.118.118c-.237.237-.591.473-.71.355C19.6,17.82,24.332,15.1,29.655,15.1s10.054,2.6,11.355,5.914Z" transform="translate(3.345 2.76)" fill="#73808a"/>
  <path id="Path_934" data-name="Path 934" d="M23.4,20.274A8.732,8.732,0,0,1,28.727,18.5a8.159,8.159,0,0,1,5.2,1.774s.118.118-.118.118-.71-.118-.828-.118a13.4,13.4,0,0,0-4.258-.71,14.872,14.872,0,0,0-3.9.591C24.351,20.392,23.168,20.629,23.4,20.274Z" transform="translate(4.273 3.382)" fill="#73808a"/>
  <path id="Path_935" data-name="Path 935" d="M37.028,20.448a1.633,1.633,0,0,0,.473.355c.237.118.591.118.473-.118-1.3-2.129-4.613-3.785-8.516-3.785s-7.333,1.774-8.753,3.9c-.118.118.118.118.237.118a2.586,2.586,0,0,0,.591-.355,13.91,13.91,0,0,1,7.806-2.484A12.1,12.1,0,0,1,37.028,20.448Z" transform="translate(3.779 3.089)" fill="#73808a"/>
  <path id="Path_936" data-name="Path 936" d="M32.9,23.5h1.3l-.473,14.785h-.473l-.355-13.6H24.5l-.473,13.6h-.473L23.2,23.5h9.7Z" transform="translate(4.241 4.296)" fill="#73808a"/>
  <path id="Path_937" data-name="Path 937" d="M49.692,50.308h-.473V50.9h.237c.118,0,.237,0,.237-.118.118,0,.118-.118.118-.237.118,0,0-.118-.118-.237Zm-.946,1.656V49.953h.946a.435.435,0,0,1,.355.118c.237.118.237.237.237.473a.418.418,0,0,1-.473.473c.118,0,.237,0,.237.118.118.118.237.237.118.473v.237h-.473v-.473a.116.116,0,0,0-.118-.118H49.1v.71Zm-.237-2.129a1.445,1.445,0,0,0-.473,1.065,1.284,1.284,0,0,0,.473,1.065,1.5,1.5,0,0,0,2.129,0h0a1.761,1.761,0,0,0,.473-1.065,1.284,1.284,0,0,0-.473-1.065,1.762,1.762,0,0,0-1.065-.473A2.229,2.229,0,0,0,48.51,49.835ZM50.875,52.2a1.779,1.779,0,0,1-1.3.473,1.9,1.9,0,0,1-1.3-.591,1.779,1.779,0,0,1-.473-1.3,1.9,1.9,0,0,1,.591-1.3,1.76,1.76,0,0,1,2.6.118,1.779,1.779,0,0,1,.473,1.3,2.626,2.626,0,0,1-.591,1.3Z" transform="translate(8.738 8.95)" fill="#fff"/>
</svg>
