<svg xmlns="http://www.w3.org/2000/svg" width="22.917" height="25" viewBox="0 0 22.917 25">
  <path id="iconmonstr-phone-4" d="M21.719,24.64C14.045,28.147,2.133,4.994,9.634,1.082L11.829,0l3.638,7.1L13.3,8.17c-2.28,1.223,2.469,10.5,4.8,9.369.095-.043,2.143-1.049,2.15-1.053l3.669,7.078C23.908,23.568,21.845,24.582,21.719,24.64Zm-9.831-2.358c-1.538,1.117-3.652,1.219-4.3.11a4.2,4.2,0,0,1-.132-2.909,5.423,5.423,0,0,0-.307-3.865c-1.27-2.163-4.059-2.066-6.152-.7l1,1.524a3.575,3.575,0,0,1,2.6-.634c1.722.4,1.2,2.631,1.073,3.364a5.779,5.779,0,0,0,.351,4.133c1.295,2.232,4.77,2.163,7.121.329-.429-.424-.845-.878-1.25-1.354Z" transform="translate(-1)" fill="#ffbd14"/>
</svg>
