<svg id="Layer_1" data-name="Layer 1" xmlns="http://www.w3.org/2000/svg" viewBox="0 0 36 36"><defs><style>.cls-1{fill:#1a3660;}</style></defs><title>icon</title><path class="cls-1" d="M31.19,30.3h0c-.3.32-.6.61-.93.93-.49.47-1,1-1.47,1.52A3.66,3.66,0,0,1,25.93,34h-.35a16.62,16.62,0,0,1-5.93-1.78A33.77,33.77,0,0,1,8.42,23.39a30.84,30.84,0,0,1-5.48-9.11,10.72,10.72,0,0,1-.85-4.76A3.42,3.42,0,0,1,3.14,7.26L5.73,4.67a1.73,1.73,0,0,1,1.16-.54A1.6,1.6,0,0,1,8,4.67l0,0c.47.43.91.88,1.37,1.36.24.24.48.48.72.74l2.08,2.07a1.45,1.45,0,0,1,0,2.36c-.22.22-.43.44-.65.65-.64.65-1.25,1.26-1.91,1.85l0,0a1.56,1.56,0,0,0-.4,1.73l0,.06a16.83,16.83,0,0,0,2.45,4h0a27.94,27.94,0,0,0,6.76,6.13,9.61,9.61,0,0,0,.93.51c.28.14.54.27.76.41l.09.05a1.56,1.56,0,0,0,1.91-.33l2.6-2.6a1.72,1.72,0,0,1,1.15-.57,1.56,1.56,0,0,1,1.1.55v0l4.19,4.18a1.5,1.5,0,0,1,0,2.38m-2.72-8a3.55,3.55,0,0,0-2.57-1.18,3.71,3.71,0,0,0-2.61,1.17l-2.4,2.4-.59-.31a7.44,7.44,0,0,1-.75-.4,26.11,26.11,0,0,1-6.26-5.7A15.62,15.62,0,0,1,11.23,15c.63-.57,1.21-1.16,1.77-1.73l.64-.64a3.48,3.48,0,0,0,0-5.26L11.56,5.33c-.24-.23-.48-.47-.71-.72-.45-.47-.93-1-1.43-1.41A3.61,3.61,0,0,0,6.87,2.08,3.71,3.71,0,0,0,4.29,3.2h0L1.68,5.82A5.56,5.56,0,0,0,0,9.35,13.22,13.22,0,0,0,1,15a32.63,32.63,0,0,0,5.82,9.7A35.79,35.79,0,0,0,18.75,34a18.64,18.64,0,0,0,6.7,2h.48a5.76,5.76,0,0,0,4.39-1.88s0,0,0,0a17.07,17.07,0,0,1,1.33-1.38c.33-.31.66-.64,1-1a3.79,3.79,0,0,0,1.15-2.63,3.64,3.64,0,0,0-1.18-2.6Z"/><path class="cls-1" d="M19.46,8.56a9.77,9.77,0,0,1,8,8,1,1,0,0,0,1,.85l.18,0a1,1,0,0,0,.84-1.18,11.82,11.82,0,0,0-9.64-9.64,1,1,0,0,0-1.19.84,1,1,0,0,0,.83,1.18"/><path class="cls-1" d="M36,15.88A19.48,19.48,0,0,0,20.1,0a1,1,0,0,0-1.18.83A1,1,0,0,0,19.76,2a17.27,17.27,0,0,1,9.35,4.84A17.1,17.1,0,0,1,34,16.21a1,1,0,0,0,1,.86l.18,0A1,1,0,0,0,36,15.88"/></svg>
